<svg width="182" height="184" viewBox="0 0 182 184" fill="none" xmlns="http://www.w3.org/2000/svg">
<path d="M125.588 57.3634C124.31 58.7437 123.179 60.2545 122.211 61.8712C121.747 62.6703 121.334 63.4989 120.976 64.3519L120.712 64.9911L120.501 65.628C120.357 66.0541 120.236 66.4876 120.138 66.9267C119.726 68.7025 119.626 70.5371 119.843 72.3467C120.03 74.1413 120.575 75.8786 121.447 77.4533L121.805 78.0555C121.919 78.2603 122.071 78.4341 122.202 78.6267C122.47 79.0036 122.765 79.3607 123.084 79.6951C123.157 79.7845 123.238 79.8662 123.327 79.9391L123.584 80.1692C123.748 80.3297 123.923 80.48 124.105 80.6195C124.47 80.8954 124.849 81.1514 125.242 81.3863C125.634 81.6081 126.045 81.7946 126.469 81.9436C126.883 82.0988 127.31 82.2143 127.745 82.2883C128.568 82.4416 129.416 82.3891 130.215 82.1354C131.294 81.7431 132.226 81.0224 132.882 80.073C133.251 79.5697 133.561 79.025 133.805 78.4497C133.872 78.3067 133.925 78.1566 133.986 78.0101C134.038 77.8602 134.082 77.7072 134.131 77.5561C134.239 77.2567 134.325 76.95 134.39 76.6383C134.446 76.3237 134.532 76.0148 134.568 75.696L134.663 74.7359L134.664 73.7661C134.668 73.4424 134.609 73.1194 134.588 72.7956C134.433 71.4953 134.081 70.2271 133.543 69.0356C132.481 66.6504 130.686 64.6739 128.424 63.3977L127.564 62.9988C127.42 62.9305 127.271 62.8714 127.12 62.8218C126.968 62.7698 126.82 62.7058 126.666 62.6624C126.054 62.4681 125.428 62.3265 124.792 62.2393C123.508 62.0768 122.207 62.1132 120.933 62.3473C118.319 62.8607 115.852 63.9607 113.715 65.5657C111.524 67.1539 109.628 69.1188 108.113 71.3702C106.619 73.7072 105.382 76.2014 104.425 78.8084C103.439 81.4471 102.633 84.1815 101.851 86.9614C100.859 90.3817 99.9259 93.8436 98.6657 97.3212C98.0236 99.1485 97.1306 100.876 96.013 102.454C95.4138 103.274 94.7178 104.016 93.9405 104.666C93.1632 105.306 92.3191 105.858 91.4233 106.313C90.5444 106.746 89.6305 107.102 88.6916 107.378C87.774 107.637 86.8415 107.838 85.8994 107.981C84.0654 108.248 82.2133 108.364 80.3611 108.33C76.7368 108.291 73.1969 107.973 69.7052 107.849C66.2197 107.715 62.7644 107.8 59.4662 108.5C57.814 108.853 56.1915 109.336 54.6137 109.944C51.4554 111.179 48.5142 112.919 45.9031 115.097C44.6065 116.187 43.3942 117.375 42.2767 118.65C41.1706 119.929 40.1713 121.298 39.289 122.744L38.6478 123.837L38.0663 124.966C37.863 125.337 37.7033 125.73 37.5276 126.115C37.3548 126.502 37.1747 126.885 37.0318 127.284C36.2706 129.192 35.6676 131.16 35.2293 133.168C34.802 135.175 34.5573 137.216 34.4983 139.268C34.4683 139.756 34.4804 140.222 34.4754 140.669C34.4703 141.116 34.4574 141.544 34.4749 141.95C34.483 142.357 34.4853 142.746 34.4818 143.118C34.4959 143.487 34.5083 143.838 34.5124 144.174C34.5069 144.848 34.5433 145.444 34.5354 145.986C34.52 146.531 34.526 147.006 34.5016 147.43C34.4304 148.667 34.0556 148.805 33.4742 147.875C33.299 147.587 33.1415 147.288 33.0024 146.981C32.8505 146.614 32.6977 146.18 32.5361 145.683C32.1672 144.458 31.9142 143.2 31.7807 141.926C31.5793 139.96 31.5629 137.979 31.7317 136.009C31.913 134.007 32.2807 132.026 32.8299 130.093C34.0575 125.704 36.1548 121.611 38.9951 118.061C41.8334 114.547 45.315 111.616 49.25 109.428C53.1727 107.224 57.4906 105.832 61.9509 105.332C66.3887 104.841 70.7823 105.099 75.0714 105.277C77.4344 105.369 79.8516 105.458 82.1591 105.36C83.296 105.314 84.4296 105.203 85.5545 105.029C86.6223 104.856 87.6738 104.592 88.6973 104.239C90.25 103.72 91.6597 102.839 92.8114 101.667C93.9443 100.407 94.8358 98.9464 95.4409 97.3594C96.1037 95.6645 96.6814 93.937 97.1719 92.1837C97.6927 90.409 98.1783 88.6108 98.6725 86.8024C99.6289 83.1203 100.823 79.505 102.249 75.9798C102.997 74.1898 103.882 72.4605 104.894 70.8074C107.461 66.5815 111.206 63.211 115.659 61.1176C118.37 59.8266 121.364 59.2641 124.352 59.4845C125.863 59.6201 127.342 59.9978 128.734 60.6034C130.138 61.2067 131.424 62.0593 132.528 63.1207C133.633 64.1563 134.573 65.3575 135.314 66.682C136.047 68.0035 136.594 69.4213 136.941 70.895C137.243 72.2188 137.371 73.5772 137.321 74.9353C137.245 76.3084 136.974 77.6638 136.517 78.96C136.033 80.2781 135.323 81.5005 134.421 82.5716C133.944 83.1276 133.399 83.6201 132.799 84.0371C132.177 84.4649 131.495 84.7958 130.776 85.0186C129.359 85.4341 127.861 85.4762 126.424 85.1409C125.732 84.9896 125.058 84.7666 124.411 84.4753C124.09 84.3338 123.775 84.176 123.469 84.0024C123.158 83.8367 122.883 83.6275 122.589 83.4398L122.156 83.1491C122.01 83.0537 121.886 82.9313 121.75 82.8232C121.485 82.5986 121.215 82.3785 120.957 82.1464C119.97 81.1817 119.12 80.0833 118.432 78.8827C118.109 78.2827 117.82 77.664 117.568 77.0299C117.315 76.4014 117.1 75.7584 116.923 75.1042C116.83 74.7793 116.772 74.4472 116.697 74.1189L116.591 73.625C116.562 73.4594 116.542 73.2926 116.518 73.1264C116.315 71.8008 116.252 70.4572 116.328 69.1176C116.409 67.7792 116.62 66.4517 116.957 65.1541C117.322 63.8757 117.796 62.6312 118.373 61.4344C119.534 59.0981 121.013 56.9363 122.766 55.0118C123.619 54.0573 124.519 53.1469 125.463 52.2844C126.396 51.4181 127.366 50.6021 128.356 49.8191C131.522 47.3144 134.815 45.3131 137.941 43.4279C141.07 41.5411 144.08 39.8101 146.815 37.919C148.068 37.0455 148.714 36.6734 148.815 36.9386C148.853 37.0584 148.767 37.35 148.513 37.7793C148.362 38.0417 148.196 38.2947 148.015 38.5369C147.778 38.8679 147.523 39.185 147.25 39.4864C146.812 39.9631 146.367 40.4408 145.908 40.9062C145.685 41.149 145.431 41.352 145.188 41.57C144.943 41.784 144.698 42.0042 144.449 42.214C143.452 43.0618 142.431 43.8838 141.387 44.6802C139.295 46.2595 137.154 47.7582 135.08 49.2644C133.376 50.507 131.677 51.7359 130.064 53.0585C128.457 54.3495 126.952 55.7648 125.562 57.2917C125.572 57.3152 125.58 57.3373 125.588 57.3634Z" fill="#6B7B8F"/>
<path d="M143.71 46.1422C144.036 44.8741 144.43 43.6246 144.891 42.3994C145.003 42.0777 145.126 41.761 145.248 41.4463C145.367 41.1298 145.474 40.8101 145.57 40.4912C145.885 39.385 146.235 38.3013 146.594 37.2239C146.776 36.6864 146.961 36.1507 147.153 35.6204L147.442 34.8254C147.536 34.56 147.641 34.2988 147.754 34.041L150.151 36.7839L149.274 37.012L148.831 37.1256L148.609 37.1821L148.497 37.2103L148.442 37.2252L148.428 37.2295L148.425 37.2306C148.422 37.224 148.428 37.2462 148.419 37.2159L148.417 37.2157L148.409 37.215L148.379 37.2116C148.064 37.1665 147.744 37.1925 147.44 37.2877C147.139 37.3563 146.838 37.4329 146.536 37.5176C145.497 37.7962 144.438 38.0769 143.36 38.3079C142.269 38.541 141.167 38.7156 140.058 38.8311C137.791 39.0702 135.501 38.9691 133.263 38.5309C133.093 38.5011 132.924 38.4615 132.759 38.4121C132.594 38.3565 132.43 38.2947 132.269 38.2289C131.946 38.095 131.628 37.9552 131.323 37.7985C131.058 37.6483 130.838 37.4305 130.683 37.167C130.528 36.9034 130.445 36.6033 130.442 36.2969C130.418 36.0949 130.435 35.89 130.494 35.6952C130.553 35.5005 130.651 35.3202 130.783 35.1661C130.915 35.012 131.078 34.8875 131.26 34.8005C131.443 34.7136 131.641 34.6662 131.843 34.6614C132.365 34.6932 132.881 34.7992 133.373 34.9761C134.512 35.3403 135.697 35.536 136.892 35.5571C138.096 35.5745 139.298 35.4443 140.471 35.1694C141.113 34.9647 141.777 34.8347 142.449 34.7818C143.517 34.7639 144.578 34.6042 145.606 34.307C145.867 34.2364 146.128 34.1752 146.386 34.0831L146.774 33.9555C146.902 33.9074 147.027 33.8494 147.153 33.7931C147.264 33.7 147.385 33.6188 147.514 33.5508L147.907 33.4292C148.168 33.3506 148.438 33.2755 148.707 33.2083L149.155 33.0925L149.229 33.0733C149.548 32.9909 149.883 33.0008 150.196 33.1017C150.509 33.2025 150.787 33.3904 150.999 33.6437C151.211 33.897 151.348 34.2056 151.394 34.5339C151.44 34.8623 151.393 35.1972 151.259 35.5002C150.662 36.8496 150.156 38.2351 149.624 39.5938C149.094 40.9278 148.607 42.268 148.174 43.6136C147.735 44.9423 147.402 46.3044 147.18 47.6865C147.024 48.8291 146.568 49.9094 145.86 50.8156C145.779 50.9302 145.674 51.0251 145.552 51.0934C145.43 51.1617 145.295 51.2016 145.156 51.2103C145.004 51.2146 144.854 51.1883 144.713 51.1327C144.631 51.1012 144.552 51.0625 144.477 51.017C144.405 50.9688 144.298 50.9141 144.272 50.8434C144.045 50.4566 143.879 50.0364 143.781 49.5979C143.676 49.1688 143.604 48.732 143.566 48.2915C143.549 47.9325 143.563 47.5727 143.609 47.2162C143.661 46.8624 143.728 46.5105 143.775 46.1582L143.71 46.1422Z" fill="#6B7B8F"/>
</svg>
