<svg width="116" height="19" viewBox="0 0 116 19" fill="none" xmlns="http://www.w3.org/2000/svg">
<g clip-path="url(#clip0_1074_6786)">
<path d="M9.07088 0.668008C9.41462 -0.148451 10.5854 -0.14845 10.9291 0.66801L12.9579 5.4869C13.1029 5.8311 13.4306 6.06628 13.8067 6.09606L19.0727 6.51314C19.9649 6.58381 20.3267 7.6838 19.6469 8.25906L15.6348 11.6543C15.3482 11.8969 15.223 12.2774 15.3106 12.64L16.5363 17.7167C16.744 18.5768 15.7969 19.2567 15.033 18.7958L10.5245 16.0752C10.2025 15.8809 9.7975 15.8809 9.47548 16.0752L4.96699 18.7958C4.20311 19.2567 3.25596 18.5768 3.46363 17.7167L4.68942 12.64C4.77698 12.2774 4.65182 11.8969 4.36526 11.6543L0.353062 8.25906C-0.326718 7.6838 0.0350679 6.58381 0.927291 6.51314L6.19336 6.09606C6.5695 6.06628 6.89716 5.8311 7.04207 5.4869L9.07088 0.668008Z" fill="black"/>
<path d="M33.0709 0.668008C33.4146 -0.148451 34.5854 -0.14845 34.9291 0.66801L36.9579 5.4869C37.1029 5.8311 37.4306 6.06628 37.8067 6.09606L43.0727 6.51314C43.9649 6.58381 44.3267 7.6838 43.6469 8.25906L39.6348 11.6543C39.3482 11.8969 39.223 12.2774 39.3106 12.64L40.5363 17.7167C40.744 18.5768 39.7969 19.2567 39.033 18.7958L34.5245 16.0752C34.2025 15.8809 33.7975 15.8809 33.4755 16.0752L28.967 18.7958C28.2031 19.2567 27.256 18.5768 27.4636 17.7167L28.6894 12.64C28.777 12.2774 28.6518 11.8969 28.3653 11.6543L24.3531 8.25906C23.6733 7.6838 24.0351 6.58381 24.9273 6.51314L30.1934 6.09606C30.5695 6.06628 30.8972 5.8311 31.0421 5.4869L33.0709 0.668008Z" fill="black"/>
<path d="M57.0709 0.668008C57.4146 -0.148451 58.5854 -0.14845 58.9291 0.66801L60.9579 5.4869C61.1029 5.8311 61.4306 6.06628 61.8067 6.09606L67.0727 6.51314C67.9649 6.58381 68.3267 7.6838 67.6469 8.25906L63.6348 11.6543C63.3482 11.8969 63.223 12.2774 63.3106 12.64L64.5363 17.7167C64.744 18.5768 63.7969 19.2567 63.033 18.7958L58.5245 16.0752C58.2025 15.8809 57.7975 15.8809 57.4755 16.0752L52.967 18.7958C52.2031 19.2567 51.256 18.5768 51.4636 17.7167L52.6894 12.64C52.777 12.2774 52.6518 11.8969 52.3653 11.6543L48.3531 8.25906C47.6733 7.6838 48.0351 6.58381 48.9273 6.51314L54.1934 6.09606C54.5695 6.06628 54.8972 5.8311 55.0421 5.4869L57.0709 0.668008Z" fill="black"/>
<path d="M81.0709 0.668008C81.4146 -0.148451 82.5854 -0.14845 82.9291 0.66801L84.9579 5.4869C85.1029 5.8311 85.4306 6.06628 85.8067 6.09606L91.0727 6.51314C91.9649 6.58381 92.3267 7.6838 91.6469 8.25906L87.6348 11.6543C87.3482 11.8969 87.223 12.2774 87.3106 12.64L88.5363 17.7167C88.744 18.5768 87.7969 19.2567 87.033 18.7958L82.5245 16.0752C82.2025 15.8809 81.7975 15.8809 81.4755 16.0752L76.967 18.7958C76.2031 19.2567 75.256 18.5768 75.4636 17.7167L76.6894 12.64C76.777 12.2774 76.6518 11.8969 76.3653 11.6543L72.3531 8.25906C71.6733 7.6838 72.0351 6.58381 72.9273 6.51314L78.1934 6.09606C78.5695 6.06628 78.8972 5.8311 79.0421 5.4869L81.0709 0.668008Z" fill="black"/>
<path d="M105.071 0.668008C105.415 -0.148451 106.585 -0.14845 106.929 0.66801L108.958 5.4869C109.103 5.8311 109.431 6.06628 109.807 6.09606L115.073 6.51314C115.965 6.58381 116.327 7.6838 115.647 8.25906L111.635 11.6543C111.348 11.8969 111.223 12.2774 111.311 12.64L112.536 17.7167C112.744 18.5768 111.797 19.2567 111.033 18.7958L106.525 16.0752C106.202 15.8809 105.797 15.8809 105.475 16.0752L100.967 18.7958C100.203 19.2567 99.256 18.5768 99.4636 17.7167L100.689 12.64C100.777 12.2774 100.652 11.8969 100.365 11.6543L96.3531 8.25906C95.6733 7.6838 96.0351 6.58381 96.9273 6.51314L102.193 6.09606C102.569 6.06628 102.897 5.8311 103.042 5.4869L105.071 0.668008Z" fill="black"/>
</g>
<defs>
<clipPath id="clip0_1074_6786">
<rect width="116" height="18.8889" fill="white" transform="translate(0 0.0556641)"/>
</clipPath>
</defs>
</svg>
