<svg width="50" height="50" viewBox="0 0 50 50" fill="none" xmlns="http://www.w3.org/2000/svg">
<circle cx="25" cy="25" r="25" fill="#ECEBFF"/>
<path d="M27 27.56V25.9606C27.1933 25.797 27.3618 25.6112 27.5064 25.41H34C34.1358 25.41 34.25 25.5242 34.25 25.66V29.19C34.25 31.985 31.9866 34.25 29.18 34.25H20.81C18.0142 34.25 15.75 31.9858 15.75 29.19V25.66C15.75 25.5242 15.8642 25.41 16 25.41H22.4936C22.6382 25.6112 22.8067 25.797 23 25.9606V27.56C23 28.6642 23.8958 29.56 25 29.56C26.1042 29.56 27 28.6642 27 27.56Z" fill="#292D32" stroke="#1B0354" stroke-width="1.5"/>
<path d="M20.81 15.75H29.19C31.9858 15.75 34.25 18.0142 34.25 20.81V22.16C34.25 22.2958 34.1358 22.41 34 22.41H27.9141C27.5579 21.5085 26.7769 20.8033 25.8313 20.5548C24.1906 20.1195 22.6643 21.0163 22.1073 22.41H16C15.8642 22.41 15.75 22.2958 15.75 22.16V20.81C15.75 18.0142 18.0142 15.75 20.81 15.75Z" fill="#292D32" stroke="#1B0354" stroke-width="1.5"/>
</svg>
