<svg width="116" height="123" viewBox="0 0 116 123" fill="none" xmlns="http://www.w3.org/2000/svg">
<path d="M23.1906 99.6175C24.4147 98.1193 25.4685 96.5054 26.3349 94.802C26.7491 93.9614 27.1043 93.0965 27.3985 92.2127L27.6139 91.5508L27.7732 90.8964C27.8824 90.4583 27.9666 90.015 28.0254 89.5685C28.2807 87.761 28.1951 85.9254 27.7725 84.1456C27.3847 82.3776 26.6182 80.7018 25.5191 79.2196L25.0721 78.6552C24.9282 78.4625 24.7468 78.3044 24.587 78.1254C24.26 77.7765 23.9068 77.4498 23.5301 77.1481C23.4426 77.0663 23.3466 76.9929 23.2435 76.929L22.9448 76.725C22.7514 76.5813 22.5489 76.4487 22.3385 76.3277C21.9188 76.0886 21.4856 75.8708 21.041 75.6753C20.5976 75.4928 20.1379 75.3472 19.6672 75.2404C19.2081 75.1262 18.7385 75.0529 18.2646 75.0216C17.3667 74.9493 16.4635 75.0843 15.6341 75.4147C14.5193 75.9103 13.5965 76.7184 12.9934 77.7273C12.6512 78.2641 12.3766 78.8364 12.1754 79.4327C12.1183 79.5816 12.0771 79.7362 12.0273 79.8879C11.9874 80.0422 11.9568 80.1987 11.9202 80.3538C11.836 80.6623 11.7752 80.976 11.7384 81.2926C11.7117 81.6111 11.6521 81.9269 11.6464 82.2478L11.6459 83.2125L11.7469 84.1778C11.7758 84.5004 11.8731 84.8161 11.9303 85.1362C12.2323 86.4152 12.7427 87.6431 13.4435 88.7765C14.8318 91.0468 16.9619 92.8389 19.5196 93.8884L20.4826 94.2017C20.6443 94.2555 20.8095 94.2999 20.9772 94.3345C21.145 94.3714 21.3101 94.4207 21.4799 94.4489C22.1553 94.5827 22.8416 94.6625 23.5313 94.6873C24.924 94.7238 26.3145 94.5607 27.6545 94.2036C30.4012 93.4377 32.9286 92.1025 35.0496 90.2968C37.2295 88.5027 39.0547 86.3622 40.4412 83.9739C41.7965 81.5024 42.8595 78.8995 43.6115 76.2115C44.3913 73.4893 44.9677 70.6894 45.5139 67.8464C46.2171 64.3458 46.8537 60.8094 47.8388 57.2255C48.3349 55.3442 49.1102 53.5376 50.1419 51.8583C50.6978 50.9844 51.3655 50.1773 52.13 49.455C52.8956 48.7426 53.7418 48.1105 54.6537 47.57C55.5498 47.0535 56.4915 46.61 57.4684 46.2441C58.4243 45.8971 59.4021 45.6059 60.3964 45.3722C62.3331 44.9278 64.305 44.631 66.2928 44.4845C70.1794 44.1704 74.005 44.1413 77.7586 43.9242C81.5065 43.7177 85.1992 43.2962 88.6591 42.2786C90.392 41.7662 92.0794 41.1273 93.7057 40.3678C96.9596 38.8308 99.9279 36.8125 102.496 34.3904C103.771 33.1796 104.945 31.8793 106.008 30.5008C107.059 29.12 107.986 27.6599 108.78 26.1356L109.352 24.9846L109.856 23.8051C110.035 23.416 110.165 23.0089 110.313 22.6086C110.457 22.2071 110.61 21.8081 110.721 21.3964C111.337 19.4237 111.776 17.4065 112.035 15.3655C112.282 13.3264 112.33 11.2704 112.178 9.22311C112.159 8.73439 112.097 8.27163 112.055 7.82638C112.014 7.38113 111.983 6.95421 111.921 6.55137C111.87 6.14694 111.827 5.7598 111.791 5.38993C111.738 5.02378 111.687 4.67528 111.648 4.34164C111.583 3.6706 111.481 3.08048 111.433 2.5402C111.392 1.99709 111.336 1.52495 111.318 1.10009C111.264 -0.137759 111.651 -0.311566 112.372 0.557199C112.59 0.826759 112.79 1.10851 112.971 1.40088C113.172 1.75139 113.381 2.16864 113.607 2.64736C114.13 3.83075 114.533 5.05798 114.81 6.3126C115.232 8.24977 115.458 10.22 115.483 12.197C115.499 14.2072 115.313 16.2144 114.928 18.192C114.073 22.6793 112.256 26.9574 109.586 30.7671C106.914 34.5411 103.492 37.7977 99.506 40.359C95.535 42.9345 91.0554 44.7414 86.3297 45.6738C81.6271 46.5947 76.8933 46.7663 72.2799 47.0079C69.7388 47.1466 67.1399 47.2928 64.6783 47.6157C63.4651 47.7724 62.2624 47.9931 61.0757 48.2766C59.9498 48.5522 58.8511 48.9176 57.7918 49.3689C56.1828 50.0365 54.7651 51.0512 53.6543 52.3301C52.5729 53.6943 51.771 55.2347 51.2894 56.8731C50.7572 58.6246 50.3196 60.4001 49.9781 62.1929C49.6065 64.0099 49.275 65.8469 48.9353 67.6948C48.2972 71.4527 47.3968 75.1672 46.24 78.8145C45.6259 80.669 44.8599 82.4762 43.9489 84.2202C41.6422 88.6762 37.9845 92.3957 33.4335 94.9133C30.6649 96.4623 27.516 97.3142 24.2924 97.3861C22.6596 97.3984 21.0351 97.1667 19.4801 96.6997C17.9126 96.2362 16.4465 95.5129 15.1515 94.5642C13.8595 93.6413 12.7269 92.5374 11.7932 91.2915C10.8698 90.0477 10.1346 88.69 9.60874 87.2572C9.14594 85.9692 8.86637 84.6297 8.77724 83.2732C8.71481 81.8992 8.86279 80.5239 9.21669 79.1892C9.59674 77.8303 10.2286 76.5445 11.0834 75.3905C11.5356 74.7907 12.0675 74.2474 12.6665 73.7739C13.2879 73.2875 13.9839 72.8917 14.7312 72.5998C16.2054 72.0482 17.8059 71.8603 19.3798 72.0539C20.1371 72.137 20.8831 72.2932 21.6061 72.5201C21.9656 72.6295 22.319 72.7559 22.6649 72.8989C23.0161 73.0334 23.3325 73.2149 23.667 73.373L24.1615 73.6201C24.3274 73.7008 24.4738 73.8105 24.6307 73.9049C24.938 74.1026 25.2502 74.2953 25.5509 74.5011C26.7099 75.365 27.7354 76.3753 28.5983 77.5032C29.0081 78.0688 29.3822 78.6563 29.7188 79.2628C30.0553 79.8637 30.3536 80.4827 30.6121 81.1165C30.7453 81.4308 30.8419 81.7557 30.9573 82.0751L31.1229 82.5563C31.1708 82.7183 31.2097 82.8823 31.2531 83.0454C31.6092 84.3449 31.8184 85.676 31.8774 87.0165C31.9309 88.3566 31.8446 89.6982 31.6198 91.0225C31.3622 92.3305 30.985 93.6153 30.4924 94.8626C29.4939 97.301 28.1367 99.5966 26.4602 101.683C25.647 102.716 24.7783 103.71 23.8574 104.66C22.9486 105.613 21.9952 106.52 21.0176 107.396C17.8883 110.197 14.5708 112.51 11.4193 114.691C8.26527 116.874 5.22235 118.89 2.49079 121.039C1.24059 122.03 0.58806 122.463 0.451627 122.209C0.3982 122.094 0.459807 121.795 0.687445 121.343C0.821172 121.067 0.97266 120.799 1.14107 120.541C1.35985 120.188 1.6002 119.848 1.86091 119.521C2.28003 119.004 2.70676 118.485 3.14974 117.977C3.36297 117.714 3.61381 117.487 3.85072 117.247C4.09144 117.01 4.32999 116.767 4.57555 116.533C5.55451 115.593 6.5617 114.675 7.59712 113.781C9.67183 112.005 11.8079 110.305 13.8716 108.603C15.5673 107.2 17.2578 105.812 18.8475 104.338C20.4338 102.897 21.8977 101.341 23.2257 99.6864C23.2133 99.6639 23.2019 99.6428 23.1906 99.6175Z" fill="#6B7B8F"/>
</svg>
