<svg width="369" height="358" viewBox="0 0 369 358" fill="none" xmlns="http://www.w3.org/2000/svg">
<path d="M292.296 21.9902C292.35 21.9902 293.976 17.7032 294.048 17.4489C294.875 14.152 294.521 7.29467 291.324 5.28743C290.778 4.97835 290.173 4.78577 289.549 4.72186C288.925 4.65795 288.294 4.72408 287.697 4.91609C287.1 5.1081 286.549 5.42182 286.079 5.83746C285.608 6.2531 285.23 6.76164 284.966 7.331C283.776 9.74695 284.612 12.9531 285.756 15.2237C287.046 17.8395 292.296 21.9811 292.296 21.9902Z" fill="#1B0354"/>
<path d="M367.653 53.4249C364.992 50.7001 358.226 51.8264 355.183 53.3432C354.92 53.4703 351.042 55.9862 351.096 56.0679L351.15 56.1224C350.088 56.295 348.934 56.4857 347.69 56.7219C345.392 57.1851 342.795 57.7209 340.015 58.5384C337.004 59.3361 334.044 60.3158 331.151 61.472C327.901 62.7422 324.77 64.2984 321.796 66.1223L321.696 66.1949C322.422 65.3503 324.366 62.9071 324.502 62.7072C326.319 59.8281 328.135 53.2069 325.674 50.2914C325.249 49.8261 324.731 49.4544 324.154 49.2002C323.577 48.9459 322.953 48.8146 322.323 48.8146C321.692 48.8146 321.068 48.9459 320.491 49.2002C319.914 49.4544 319.397 49.8261 318.971 50.2914C317.091 52.2169 316.882 55.5139 317.264 58.0297C317.7 60.8544 321.087 66.0587 321.36 66.4765C318.379 68.4005 315.533 70.5246 312.84 72.8342C311.26 74.1785 309.716 75.559 308.181 76.994C308.781 76.2402 309.316 75.5681 309.38 75.4591C311.196 72.5799 313.013 65.9588 310.561 63.0433C310.135 62.5779 309.617 62.2063 309.04 61.952C308.463 61.6978 307.84 61.5665 307.209 61.5665C306.579 61.5665 305.955 61.6978 305.378 61.952C304.801 62.2063 304.283 62.5779 303.858 63.0433C301.978 64.9688 301.769 68.2748 302.15 70.7816C302.532 73.2884 305.338 77.8206 306.092 78.9559L304.348 80.5998C301.56 83.2519 298.79 85.9131 295.992 88.438C295.011 89.3463 294.003 90.1728 293.004 91.0175C293.54 90.3454 293.985 89.7822 294.049 89.6914C295.865 86.8123 297.682 80.1911 295.22 77.2665C294.798 76.7983 294.283 76.4231 293.707 76.1649C293.132 75.9068 292.509 75.7712 291.879 75.767C291.248 75.7627 290.624 75.8898 290.045 76.1401C289.466 76.3905 288.946 76.7586 288.517 77.2211C286.646 79.1466 286.428 82.4526 286.81 84.9594C287.191 87.4662 289.734 91.5624 290.625 92.9702C289.58 93.8058 288.526 94.6414 287.473 95.4043C286.737 95.9039 286.065 96.4397 285.302 96.9029L283.086 98.3198C281.642 99.1645 280.161 100.046 278.736 100.845C277.746 101.399 276.792 101.907 275.838 102.434C276.828 101.526 278.726 99.8003 278.872 99.6368C280.751 97.3057 282.002 94.5322 282.505 91.5806C282.727 91.3325 282.922 91.0616 283.086 90.7722C283.418 90.2367 283.635 89.6379 283.723 89.0139C283.811 88.39 283.768 87.7546 283.598 87.148C283.427 86.5415 283.131 85.9772 282.731 85.4909C282.33 85.0047 281.832 84.6072 281.27 84.3237C278.645 83.1157 274.612 84.8323 271.815 86.8213C271.933 84.8868 271.878 83.697 271.878 83.697L271.143 83.7696L271.678 82.489C272.042 81.6897 272.314 80.7996 272.632 79.9459C273.341 77.9477 273.958 75.886 274.539 73.8061C275.856 74.4419 280.552 76.6671 283.104 76.7579C285.656 76.8487 288.899 76.2674 290.597 74.1785C291.009 73.6999 291.315 73.1409 291.499 72.537C291.682 71.9332 291.737 71.2979 291.661 70.6715C291.585 70.0451 291.379 69.4414 291.057 68.899C290.735 68.3566 290.303 67.8872 289.789 67.521C286.61 65.432 280.234 67.9842 277.582 70.1095C277.419 70.2457 275.684 71.9896 274.757 72.9614C275.093 71.708 275.439 70.4546 275.738 69.1649C276.601 65.4683 277.364 61.69 278.145 57.9298C278.381 56.7763 278.636 55.632 278.881 54.4785C279.344 54.7146 284.875 57.4757 287.727 57.5756C290.27 57.6664 293.522 57.0852 295.22 54.9962C295.63 54.5178 295.936 53.9594 296.118 53.3565C296.3 52.7536 296.355 52.1193 296.279 51.4941C296.203 50.8688 295.998 50.2662 295.676 49.7246C295.355 49.1829 294.924 48.7141 294.412 48.3478C291.233 46.2497 284.857 48.8019 282.205 50.9363C282.005 51.0907 279.48 53.5975 278.926 54.2696C279.462 51.7446 280.034 49.2288 280.688 46.7674C281.556 43.4477 282.642 40.189 283.94 37.0128C284.158 37.1218 289.916 40.0282 292.841 40.1281C295.375 40.228 298.635 39.6376 300.334 37.5486C300.743 37.0697 301.048 36.5108 301.23 35.9075C301.411 35.3042 301.465 34.6698 301.388 34.0445C301.312 33.4192 301.105 32.8168 300.783 32.2755C300.461 31.7341 300.029 31.2658 299.516 30.9002C296.337 28.8022 289.971 31.3544 287.318 33.4888C287.11 33.6522 284.439 36.3497 283.985 36.8765C284.067 36.6949 284.121 36.4951 284.203 36.3134C285.583 33.1428 287.246 30.103 289.171 27.2309C290.216 25.6415 291.297 24.1701 292.387 22.7714C293.404 23.4253 298.081 26.3499 300.706 26.7404C303.331 27.131 306.519 26.8767 308.435 24.9966C308.896 24.5654 309.261 24.0432 309.508 23.4631C309.755 22.8829 309.879 22.2577 309.871 21.6271C309.864 20.9966 309.725 20.3745 309.464 19.8006C309.202 19.2267 308.824 18.7135 308.354 18.2937C305.429 15.8596 298.817 17.7033 295.947 19.5289C295.792 19.6197 294.312 20.8095 293.222 21.6815C293.722 21.0639 294.221 20.4099 294.712 19.8195C296.528 17.6034 298.345 15.687 299.998 14.0067C300.906 13.0985 301.814 12.1902 302.604 11.4364C303.94 11.5545 309.307 11.9632 311.769 11.1185C314.23 10.2738 317 8.5663 317.827 6.00503C318.037 5.41088 318.121 4.77949 318.074 4.15104C318.027 3.52259 317.849 2.91084 317.553 2.35469C317.256 1.79855 316.847 1.31019 316.352 0.920697C315.857 0.531199 315.285 0.249082 314.675 0.0923022C310.951 -0.716043 305.929 3.97054 304.221 6.9042C304.076 7.15851 302.232 11.4 302.296 11.4455H302.377C301.578 12.1721 300.733 12.9713 299.825 13.8523C298.154 15.5054 296.292 17.3854 294.376 19.5743C292.309 21.9062 290.38 24.3566 288.599 26.913C286.592 29.7796 284.845 32.8191 283.377 35.9955L283.322 36.1136C283.468 35.0055 283.749 31.8993 283.74 31.6541C283.667 28.2572 281.524 21.736 277.873 20.6461C277.264 20.4874 276.628 20.457 276.007 20.5569C275.385 20.6568 274.791 20.8848 274.263 21.2264C273.734 21.568 273.282 22.0158 272.936 22.5413C272.59 23.0668 272.356 23.6586 272.251 24.2791C271.751 26.913 273.395 29.7831 275.103 31.6723C277.019 33.7976 282.723 36.2135 283.177 36.4587C281.754 39.7032 280.556 43.0413 279.589 46.4495C279.008 48.4386 278.49 50.4549 277.991 52.4894C278.082 51.5266 278.154 50.6729 278.145 50.5457C278.072 47.1489 275.929 40.6276 272.278 39.5377C271.669 39.3804 271.035 39.3512 270.415 39.4518C269.794 39.5524 269.201 39.7806 268.674 40.1221C268.146 40.4636 267.695 40.9109 267.349 41.4356C267.004 41.9604 266.771 42.5512 266.665 43.1707C266.156 45.8047 267.809 48.6747 269.508 50.5639C271.206 52.4531 276.056 54.6692 277.337 55.2414C277.155 56.0225 276.964 56.7945 276.783 57.5756C275.92 61.3267 275.084 65.0778 274.14 68.7199C273.813 70.0096 273.44 71.263 273.077 72.5164C273.15 71.6717 273.204 70.9451 273.204 70.8361C273.132 67.4392 270.988 60.918 267.337 59.8281C266.728 59.6708 266.094 59.6415 265.474 59.7421C264.853 59.8427 264.261 60.071 263.733 60.4125C263.205 60.754 262.754 61.2012 262.409 61.726C262.063 62.2508 261.83 62.8416 261.724 63.4611C261.215 66.1041 262.859 68.9742 264.567 70.8633C266.274 72.7525 270.643 74.7507 272.16 75.4046C271.751 76.6852 271.333 77.9568 270.87 79.1739C270.543 80.0004 270.28 80.8178 269.898 81.6261L268.854 83.9694C268.045 84.1057 267.11 84.2873 266.065 84.5235C265.793 81.0994 264.512 76.9214 261.906 75.6862C261.325 75.4368 260.699 75.3112 260.068 75.3174C259.436 75.3236 258.813 75.4614 258.238 75.7221C257.663 75.9828 257.148 76.3606 256.727 76.8314C256.306 77.3022 255.988 77.8556 255.793 78.4563C254.885 80.9904 256.093 84.0784 257.491 86.1946C257.696 86.516 257.927 86.8198 258.182 87.1029C253.718 88.9234 249.704 91.6942 246.42 95.2227C237.001 105.758 237.71 121.762 237.71 121.762C237.71 121.762 251.07 120.854 260.561 112.679C263.477 111.299 267.246 109.464 271.56 107.148C273.177 106.294 274.885 105.332 276.628 104.342C277.092 104.914 280.843 109.564 283.34 110.826C285.611 111.98 288.79 112.806 291.224 111.626C291.794 111.363 292.304 110.985 292.72 110.515C293.137 110.045 293.451 109.494 293.644 108.897C293.837 108.299 293.904 107.669 293.841 107.044C293.778 106.419 293.585 105.815 293.277 105.268C291.269 102.035 284.412 101.689 281.115 102.543C280.924 102.598 278.872 103.361 277.582 103.86C278.29 103.451 278.99 103.061 279.716 102.625C281.161 101.78 282.577 100.899 284.103 99.9547L286.292 98.4924C287.028 98.0201 287.754 97.4297 288.49 96.8939C290.18 95.6223 291.833 94.2418 293.467 92.8249C294.212 94.0874 296.91 98.5287 298.98 100.009C301.051 101.49 304.085 102.798 306.655 101.998C307.262 101.825 307.826 101.527 308.311 101.124C308.796 100.72 309.192 100.22 309.473 99.6553C309.754 99.0904 309.914 98.4732 309.944 97.8429C309.973 97.2127 309.871 96.5832 309.643 95.9947C308.154 92.4979 301.424 91.1083 298.045 91.4534C297.827 91.4534 295.429 91.9711 294.112 92.2709C295.084 91.408 296.065 90.5452 297.028 89.646C299.752 87.0302 302.477 84.3055 305.202 81.5989C306.038 80.7633 306.882 79.9459 307.718 79.1284C307.972 79.5735 311.069 84.9322 313.394 86.5943C315.456 88.0747 318.499 89.3735 321.06 88.5743C321.666 88.4017 322.23 88.1049 322.716 87.7025C323.201 87.3001 323.597 86.8011 323.879 86.2373C324.161 85.6734 324.323 85.057 324.353 84.4273C324.384 83.7976 324.283 83.1684 324.057 82.5798C322.559 79.074 315.883 77.6934 312.45 78.0385C312.196 78.0385 308.744 78.7833 307.909 79.0104C309.725 77.1939 311.614 75.3774 313.512 73.7334C316.072 71.4403 318.778 69.3165 321.614 67.3757C321.732 67.5845 324.938 73.1885 327.318 74.8869C329.38 76.3674 332.422 77.6752 334.984 76.8669C335.59 76.6944 336.154 76.3975 336.639 75.9951C337.124 75.5928 337.521 75.0938 337.803 74.5299C338.085 73.966 338.246 73.3496 338.277 72.7199C338.307 72.0902 338.207 71.461 337.981 70.8724C336.482 67.3666 329.761 65.986 326.373 66.3312C326.11 66.3312 322.395 67.1395 321.723 67.3302C321.896 67.2122 322.05 67.085 322.214 66.976C325.11 65.1079 328.168 63.503 331.351 62.1804C333.094 61.4266 334.802 60.7999 336.482 60.2368C336.973 61.3358 339.261 66.3584 341.241 68.1295C343.221 69.9006 346.01 71.4537 348.644 70.9451C349.266 70.8399 349.86 70.606 350.387 70.2584C350.914 69.9109 351.363 69.4572 351.705 68.9265C352.046 68.3957 352.274 67.7996 352.372 67.176C352.471 66.5524 352.438 65.9151 352.277 65.3048C351.169 61.6718 344.638 59.5465 341.241 59.492C341.051 59.492 339.171 59.6555 337.799 59.8099C338.562 59.5647 339.343 59.2922 340.079 59.0742C342.804 58.2386 345.41 57.6483 347.699 57.1397C348.998 56.8581 350.179 56.631 351.332 56.4403C352.377 57.2668 356.636 60.5728 359.152 61.2268C361.668 61.8807 364.92 61.9806 367.027 60.3185C367.565 59.9394 368.015 59.4477 368.344 58.8776C368.674 58.3074 368.875 57.6725 368.935 57.0167C368.994 56.3609 368.911 55.7 368.689 55.0798C368.468 54.4596 368.115 53.8949 367.653 53.4249ZM270.561 105.095C268.581 106.104 266.71 107.021 264.985 107.82C267.907 103.582 269.914 98.781 270.879 93.7241C271.397 93.8512 271.924 93.9602 272.45 94.0601C272.605 96.9211 274.885 102.007 275.175 102.661C273.595 103.533 272.042 104.387 270.561 105.095Z" fill="#1B0354"/>
<path d="M340.833 56.5312C343.34 54.2333 346.836 48.3569 345.247 44.8692C344.963 44.3064 344.566 43.8088 344.08 43.4081C343.593 43.0073 343.029 42.7121 342.422 42.5412C341.816 42.3704 341.181 42.3276 340.557 42.4157C339.933 42.5037 339.334 42.7207 338.798 43.0527C336.482 44.4151 335.401 47.5395 335.111 50.0644C334.766 53.0253 336.855 59.374 336.855 59.374C336.855 59.374 340.624 56.731 340.833 56.5312Z" fill="#1B0354"/>
<path d="M230.843 28.2664C230.843 28.2664 211.452 47.9391 211.352 72.3166C211.252 96.6941 230.426 116.521 230.426 116.521C230.426 116.521 249.835 96.8485 249.917 72.4801C249.998 48.1117 230.843 28.2664 230.843 28.2664Z" fill="#1B0354"/>
<path d="M188.219 84.0149C188.219 84.0149 188.101 100.036 197.901 110.218C207.701 120.399 223.704 120.89 223.704 120.89C223.704 120.89 223.832 104.868 214.032 94.6869C204.232 84.5053 188.219 84.0149 188.219 84.0149Z" fill="#1B0354"/>
<g opacity="0.5">
<path d="M292.296 21.9902C292.35 21.9902 293.976 17.7032 294.049 17.4489C294.875 14.152 294.521 7.29467 291.324 5.28743C290.778 4.97835 290.174 4.78577 289.55 4.72186C288.925 4.65795 288.295 4.72408 287.697 4.91609C287.1 5.1081 286.549 5.42182 286.079 5.83746C285.609 6.2531 285.23 6.76164 284.966 7.331C283.776 9.74695 284.612 12.9531 285.756 15.2237C287.046 17.8395 292.296 21.9811 292.296 21.9902Z" fill="white"/>
<path d="M367.653 53.4249C364.992 50.7001 358.226 51.8264 355.183 53.3432C354.92 53.4703 351.042 55.9862 351.096 56.0679L351.15 56.1224C350.088 56.295 348.934 56.4857 347.69 56.7219C345.392 57.1851 342.795 57.7209 340.015 58.5384C337.004 59.3361 334.044 60.3158 331.151 61.472C327.901 62.7422 324.77 64.2984 321.796 66.1223L321.696 66.1949C322.422 65.3503 324.366 62.9071 324.502 62.7072C326.319 59.8281 328.135 53.2069 325.674 50.2914C325.249 49.8261 324.731 49.4544 324.154 49.2002C323.577 48.9459 322.953 48.8146 322.323 48.8146C321.692 48.8146 321.068 48.9459 320.491 49.2002C319.914 49.4544 319.397 49.8261 318.971 50.2914C317.091 52.2169 316.882 55.5139 317.264 58.0297C317.7 60.8544 321.087 66.0587 321.36 66.4765C318.379 68.4005 315.533 70.5246 312.84 72.8342C311.26 74.1785 309.716 75.559 308.181 76.994C308.781 76.2402 309.316 75.5681 309.38 75.4591C311.196 72.5799 313.013 65.9588 310.561 63.0433C310.135 62.5779 309.617 62.2063 309.04 61.952C308.463 61.6978 307.84 61.5665 307.209 61.5665C306.579 61.5665 305.955 61.6978 305.378 61.952C304.801 62.2063 304.283 62.5779 303.858 63.0433C301.978 64.9688 301.769 68.2748 302.15 70.7816C302.532 73.2884 305.338 77.8206 306.092 78.9559L304.348 80.5998C301.56 83.2519 298.79 85.9131 295.992 88.438C295.011 89.3463 294.003 90.1728 293.004 91.0175C293.54 90.3454 293.985 89.7822 294.049 89.6914C295.865 86.8123 297.682 80.1911 295.22 77.2665C294.798 76.7983 294.283 76.4231 293.707 76.1649C293.132 75.9068 292.509 75.7712 291.879 75.767C291.248 75.7627 290.624 75.8898 290.045 76.1401C289.466 76.3905 288.946 76.7586 288.517 77.2211C286.646 79.1466 286.428 82.4526 286.81 84.9594C287.191 87.4662 289.734 91.5624 290.625 92.9702C289.58 93.8058 288.526 94.6414 287.473 95.4043C286.737 95.9039 286.065 96.4397 285.302 96.9029L283.086 98.3198C281.642 99.1645 280.161 100.046 278.736 100.845C277.746 101.399 276.792 101.907 275.838 102.434C276.828 101.526 278.726 99.8003 278.872 99.6368C280.751 97.3057 282.002 94.5322 282.505 91.5806C282.727 91.3325 282.922 91.0616 283.086 90.7722C283.418 90.2367 283.635 89.6379 283.723 89.0139C283.811 88.39 283.768 87.7546 283.598 87.148C283.427 86.5415 283.131 85.9772 282.731 85.4909C282.33 85.0047 281.832 84.6072 281.27 84.3237C278.645 83.1157 274.612 84.8323 271.815 86.8213C271.933 84.8868 271.878 83.697 271.878 83.697L271.143 83.7696L271.678 82.489C272.042 81.6897 272.314 80.7996 272.632 79.9459C273.341 77.9477 273.958 75.886 274.539 73.8061C275.856 74.4419 280.552 76.6671 283.104 76.7579C285.656 76.8487 288.899 76.2674 290.597 74.1785C291.009 73.6999 291.315 73.1409 291.499 72.537C291.682 71.9332 291.737 71.2979 291.661 70.6715C291.585 70.0451 291.379 69.4414 291.057 68.899C290.735 68.3566 290.303 67.8872 289.789 67.521C286.61 65.432 280.234 67.9842 277.582 70.1095C277.419 70.2457 275.684 71.9896 274.757 72.9614C275.093 71.708 275.439 70.4546 275.738 69.1649C276.601 65.4683 277.364 61.69 278.145 57.9298C278.381 56.7763 278.636 55.632 278.881 54.4785C279.344 54.7146 284.875 57.4757 287.727 57.5756C290.27 57.6664 293.522 57.0852 295.22 54.9962C295.63 54.5178 295.936 53.9594 296.118 53.3565C296.3 52.7536 296.355 52.1193 296.279 51.4941C296.203 50.8688 295.998 50.2662 295.676 49.7246C295.355 49.1829 294.924 48.7141 294.412 48.3478C291.233 46.2497 284.857 48.8019 282.205 50.9363C282.005 51.0907 279.48 53.5975 278.926 54.2696C279.462 51.7446 280.034 49.2288 280.688 46.7674C281.556 43.4477 282.642 40.189 283.94 37.0128C284.158 37.1218 289.916 40.0282 292.841 40.1281C295.375 40.228 298.635 39.6376 300.334 37.5486C300.743 37.0697 301.048 36.5108 301.23 35.9075C301.411 35.3042 301.465 34.6698 301.388 34.0445C301.312 33.4192 301.105 32.8168 300.783 32.2755C300.461 31.7341 300.029 31.2658 299.516 30.9002C296.337 28.8022 289.971 31.3544 287.318 33.4888C287.11 33.6522 284.439 36.3497 283.985 36.8765C284.067 36.6949 284.121 36.4951 284.203 36.3134C285.583 33.1428 287.246 30.103 289.171 27.2309C290.216 25.6415 291.297 24.1701 292.387 22.7714C293.404 23.4253 298.081 26.3499 300.706 26.7404C303.331 27.131 306.519 26.8767 308.435 24.9966C308.896 24.5654 309.261 24.0432 309.508 23.4631C309.755 22.8829 309.879 22.2577 309.871 21.6271C309.864 20.9966 309.725 20.3745 309.464 19.8006C309.202 19.2267 308.824 18.7135 308.354 18.2937C305.429 15.8596 298.817 17.7033 295.947 19.5289C295.792 19.6197 294.312 20.8095 293.222 21.6815C293.722 21.0639 294.221 20.4099 294.712 19.8195C296.528 17.6034 298.345 15.687 299.998 14.0067C300.906 13.0985 301.814 12.1902 302.604 11.4364C303.94 11.5545 309.307 11.9632 311.769 11.1185C314.23 10.2738 317 8.5663 317.827 6.00503C318.037 5.41088 318.121 4.77949 318.074 4.15104C318.027 3.52259 317.849 2.91084 317.553 2.35469C317.256 1.79855 316.847 1.31019 316.352 0.920697C315.857 0.531199 315.285 0.249082 314.675 0.0923022C310.951 -0.716043 305.929 3.97054 304.221 6.9042C304.076 7.15851 302.232 11.4 302.296 11.4455H302.377C301.578 12.1721 300.733 12.9713 299.825 13.8523C298.154 15.5054 296.292 17.3854 294.376 19.5743C292.309 21.9062 290.38 24.3566 288.599 26.913C286.592 29.7796 284.845 32.8191 283.377 35.9955L283.322 36.1136C283.468 35.0055 283.749 31.8993 283.74 31.6541C283.667 28.2572 281.524 21.736 277.873 20.6461C277.264 20.4874 276.628 20.457 276.007 20.5569C275.385 20.6568 274.791 20.8848 274.263 21.2264C273.734 21.568 273.282 22.0158 272.936 22.5413C272.59 23.0668 272.356 23.6586 272.251 24.2791C271.751 26.913 273.395 29.7831 275.103 31.6723C277.019 33.7976 282.723 36.2135 283.177 36.4587C281.754 39.7032 280.556 43.0413 279.589 46.4495C279.008 48.4386 278.49 50.4549 277.991 52.4894C278.082 51.5266 278.154 50.6729 278.145 50.5457C278.072 47.1489 275.929 40.6276 272.278 39.5377C271.669 39.3804 271.035 39.3512 270.415 39.4518C269.794 39.5524 269.201 39.7806 268.674 40.1221C268.146 40.4636 267.695 40.9109 267.349 41.4356C267.004 41.9604 266.771 42.5512 266.665 43.1707C266.156 45.8047 267.809 48.6747 269.508 50.5639C271.206 52.4531 276.056 54.6692 277.337 55.2414C277.155 56.0225 276.964 56.7945 276.783 57.5756C275.92 61.3267 275.084 65.0778 274.14 68.7199C273.813 70.0096 273.44 71.263 273.077 72.5164C273.15 71.6717 273.204 70.9451 273.204 70.8361C273.132 67.4392 270.988 60.918 267.337 59.8281C266.728 59.6708 266.094 59.6415 265.474 59.7421C264.853 59.8427 264.261 60.071 263.733 60.4125C263.205 60.754 262.754 61.2012 262.409 61.726C262.063 62.2508 261.83 62.8416 261.724 63.4611C261.215 66.1041 262.859 68.9742 264.567 70.8633C266.274 72.7525 270.643 74.7507 272.16 75.4046C271.751 76.6852 271.333 77.9568 270.87 79.1739C270.543 80.0004 270.28 80.8178 269.898 81.6261L268.854 83.9694C268.045 84.1057 267.11 84.2873 266.065 84.5235C265.793 81.0994 264.512 76.9214 261.906 75.6862C261.325 75.4368 260.699 75.3112 260.068 75.3174C259.436 75.3236 258.813 75.4614 258.238 75.7221C257.663 75.9828 257.148 76.3606 256.727 76.8314C256.306 77.3022 255.988 77.8556 255.793 78.4563C254.885 80.9904 256.093 84.0784 257.491 86.1946C257.696 86.516 257.927 86.8198 258.182 87.1029C253.718 88.9234 249.704 91.6942 246.42 95.2227C237.001 105.758 237.71 121.762 237.71 121.762C237.71 121.762 251.07 120.854 260.561 112.679C263.477 111.299 267.246 109.464 271.56 107.148C273.177 106.294 274.885 105.332 276.628 104.342C277.092 104.914 280.843 109.564 283.34 110.826C285.611 111.98 288.79 112.806 291.224 111.626C291.794 111.363 292.304 110.985 292.72 110.515C293.137 110.045 293.451 109.494 293.644 108.897C293.837 108.299 293.904 107.669 293.841 107.044C293.778 106.419 293.585 105.815 293.277 105.268C291.269 102.035 284.412 101.689 281.115 102.543C280.924 102.598 278.872 103.361 277.582 103.86C278.29 103.451 278.99 103.061 279.716 102.625C281.161 101.78 282.577 100.899 284.103 99.9547L286.292 98.4924C287.028 98.0201 287.754 97.4297 288.49 96.8939C290.18 95.6223 291.833 94.2418 293.467 92.8249C294.212 94.0874 296.91 98.5287 298.98 100.009C301.051 101.49 304.085 102.798 306.655 101.998C307.262 101.825 307.826 101.527 308.311 101.124C308.796 100.72 309.192 100.22 309.473 99.6553C309.754 99.0904 309.914 98.4732 309.944 97.8429C309.973 97.2127 309.871 96.5832 309.643 95.9947C308.154 92.4979 301.424 91.1083 298.045 91.4534C297.827 91.4534 295.429 91.9711 294.112 92.2709C295.084 91.408 296.065 90.5452 297.028 89.646C299.752 87.0302 302.477 84.3055 305.202 81.5989C306.038 80.7633 306.882 79.9459 307.718 79.1284C307.972 79.5735 311.069 84.9322 313.394 86.5943C315.456 88.0747 318.499 89.3735 321.06 88.5743C321.666 88.4017 322.23 88.1049 322.716 87.7025C323.201 87.3001 323.597 86.8011 323.879 86.2373C324.161 85.6734 324.323 85.057 324.353 84.4273C324.384 83.7976 324.283 83.1684 324.057 82.5798C322.559 79.074 315.883 77.6934 312.45 78.0385C312.196 78.0385 308.744 78.7833 307.909 79.0104C309.725 77.1939 311.614 75.3774 313.512 73.7334C316.072 71.4403 318.778 69.3165 321.614 67.3757C321.732 67.5845 324.938 73.1885 327.318 74.8869C329.38 76.3674 332.422 77.6752 334.984 76.8669C335.59 76.6944 336.154 76.3975 336.639 75.9951C337.124 75.5928 337.521 75.0938 337.803 74.5299C338.085 73.966 338.246 73.3496 338.277 72.7199C338.307 72.0902 338.207 71.461 337.981 70.8724C336.482 67.3666 329.761 65.986 326.373 66.3312C326.11 66.3312 322.395 67.1395 321.723 67.3302C321.896 67.2122 322.05 67.085 322.214 66.976C325.11 65.1079 328.168 63.503 331.351 62.1804C333.094 61.4266 334.802 60.7999 336.482 60.2368C336.973 61.3358 339.261 66.3584 341.241 68.1295C343.221 69.9006 346.01 71.4537 348.644 70.9451C349.266 70.8399 349.86 70.606 350.387 70.2584C350.914 69.9109 351.363 69.4572 351.705 68.9265C352.046 68.3957 352.274 67.7996 352.372 67.176C352.471 66.5524 352.438 65.9151 352.277 65.3048C351.169 61.6718 344.638 59.5465 341.241 59.492C341.051 59.492 339.171 59.6555 337.799 59.8099C338.562 59.5647 339.343 59.2922 340.079 59.0742C342.804 58.2386 345.41 57.6483 347.699 57.1397C348.998 56.8581 350.179 56.631 351.332 56.4403C352.377 57.2668 356.636 60.5728 359.152 61.2268C361.668 61.8807 364.92 61.9806 367.027 60.3185C367.565 59.9394 368.015 59.4477 368.344 58.8776C368.674 58.3074 368.875 57.6725 368.935 57.0167C368.994 56.3609 368.911 55.7 368.689 55.0798C368.468 54.4596 368.115 53.8949 367.653 53.4249ZM270.561 105.095C268.581 106.104 266.71 107.021 264.985 107.82C267.907 103.582 269.914 98.781 270.879 93.7241C271.397 93.8512 271.924 93.9602 272.45 94.0601C272.605 96.9211 274.885 102.007 275.175 102.661C273.595 103.533 272.042 104.387 270.561 105.095Z" fill="white"/>
<path d="M340.833 56.5312C343.34 54.2333 346.836 48.3569 345.247 44.8692C344.963 44.3064 344.566 43.8088 344.08 43.4081C343.593 43.0073 343.029 42.7121 342.422 42.5412C341.816 42.3704 341.181 42.3276 340.557 42.4157C339.933 42.5037 339.334 42.7207 338.798 43.0527C336.482 44.4151 335.401 47.5395 335.111 50.0644C334.766 53.0253 336.855 59.374 336.855 59.374C336.855 59.374 340.624 56.731 340.833 56.5312Z" fill="white"/>
<path d="M230.843 28.2664C230.843 28.2664 211.452 47.9391 211.352 72.3166C211.252 96.6941 230.426 116.521 230.426 116.521C230.426 116.521 249.835 96.8485 249.917 72.4801C249.998 48.1117 230.843 28.2664 230.843 28.2664Z" fill="white"/>
<path d="M188.219 84.0149C188.219 84.0149 188.101 100.036 197.901 110.218C207.701 120.399 223.704 120.89 223.704 120.89C223.704 120.89 223.832 104.868 214.032 94.6869C204.232 84.5053 188.219 84.0149 188.219 84.0149Z" fill="white"/>
</g>
<path d="M243.032 94.4053L242.414 93.6061L231.007 102.561L231.098 82.8614L246.947 68.838L246.275 68.0842L231.098 81.5081L231.198 59.8735L241.87 50.6275L241.216 49.8646L231.198 58.5293L231.334 28.2664H230.326L230.126 72.8525L217.574 54.4967L216.738 55.0598L230.044 74.5055L230.126 74.451L230.044 92.9794L214.985 79.4373L214.313 80.1912L230.035 94.3326V94.3236L229.944 116.521L230.952 116.53L231.007 103.842L243.032 94.4053Z" fill="white"/>
<path d="M272.241 83.9241L271.497 83.252L254.712 102.016L256.238 89.8913L255.239 89.7732L253.531 103.324H253.541L246.792 110.872L245.521 99.6732L244.522 99.7821L245.893 111.88L237.374 121.399L238.127 122.071L242.968 116.667L251.715 117.193L251.769 116.185L243.822 115.704L251.079 107.593L263.259 107.602V106.594L251.978 106.576L259.962 97.6568L268.054 97.7567L268.073 96.7486L260.861 96.6578L272.241 83.9241Z" fill="white"/>
<path d="M220.217 106.63L219.218 106.494L218.146 114.387L210.598 106.539L211.525 94.3961L210.517 94.3235L209.663 105.568L201.352 96.9392L202.061 88.874L201.053 88.7922L200.426 95.9765L188.582 83.6697L187.856 84.369L205.312 102.507L193.342 100.073L193.142 101.063L206.529 103.778V103.76L213.55 111.063L202.288 111.489L202.324 112.498L214.486 112.034L223.341 121.235L224.068 120.536L219.045 115.313L220.217 106.63Z" fill="white"/>
<path d="M227.583 347.499L343.558 303.984L344.393 294.711L229.272 338.217L227.583 347.499Z" fill="#1B0354" stroke="#2E353A" stroke-width="0.728623" stroke-linecap="round" stroke-linejoin="round"/>
<path d="M208.055 193.677C206.017 193.662 204.048 192.943 202.478 191.643C200.507 190.017 199.212 187.714 198.845 185.185C198.8 184.733 198.929 184.281 199.207 183.922C199.485 183.563 199.89 183.324 200.339 183.256C200.788 183.187 201.246 183.293 201.619 183.552C201.992 183.812 202.251 184.204 202.342 184.649C202.579 186.308 203.424 187.82 204.713 188.891C205.273 189.374 205.932 189.73 206.644 189.934C207.355 190.138 208.102 190.185 208.834 190.072C209.565 189.959 210.264 189.688 210.88 189.279C211.497 188.869 212.017 188.331 212.406 187.701C212.673 187.33 213.074 187.077 213.524 186.995C213.974 186.913 214.438 187.008 214.819 187.26C215.201 187.512 215.47 187.902 215.57 188.349C215.67 188.795 215.594 189.262 215.358 189.654C214.695 190.693 213.818 191.58 212.786 192.255C211.754 192.93 210.59 193.378 209.372 193.568C208.937 193.641 208.496 193.677 208.055 193.677Z" fill="#2E353A"/>
<path d="M191.316 198.845C186.838 198.845 182.833 195.285 182.079 190.362C182.043 190.133 182.052 189.899 182.107 189.674C182.161 189.448 182.26 189.236 182.396 189.048C182.533 188.861 182.705 188.703 182.903 188.582C183.101 188.461 183.321 188.381 183.551 188.346C184.014 188.285 184.483 188.404 184.86 188.68C185.237 188.956 185.494 189.366 185.576 189.826C186.103 193.287 189.018 195.721 192.061 195.276C192.791 195.157 193.488 194.884 194.105 194.475C194.722 194.066 195.245 193.531 195.639 192.905C195.907 192.534 196.308 192.281 196.757 192.199C197.207 192.117 197.672 192.212 198.053 192.464C198.434 192.717 198.703 193.107 198.804 193.553C198.904 193.999 198.828 194.467 198.591 194.858C197.928 195.898 197.052 196.784 196.02 197.459C194.988 198.134 193.824 198.582 192.606 198.772C192.179 198.832 191.747 198.856 191.316 198.845Z" fill="#2E353A"/>
<path d="M176.003 204.722C173.967 204.708 171.997 203.992 170.426 202.696C168.457 201.068 167.162 198.767 166.793 196.239C166.748 195.787 166.877 195.335 167.155 194.975C167.433 194.616 167.838 194.378 168.287 194.309C168.736 194.24 169.194 194.346 169.567 194.606C169.94 194.865 170.199 195.258 170.29 195.703C170.527 197.361 171.372 198.873 172.661 199.944C173.227 200.419 173.887 200.769 174.597 200.972C175.307 201.176 176.052 201.228 176.784 201.125C177.513 201.006 178.209 200.733 178.824 200.324C179.44 199.915 179.961 199.38 180.354 198.754C180.651 198.467 181.037 198.289 181.448 198.25C181.86 198.212 182.272 198.315 182.618 198.543C182.963 198.77 183.22 199.109 183.347 199.502C183.473 199.896 183.462 200.321 183.314 200.707C182.649 201.746 181.77 202.633 180.737 203.307C179.704 203.982 178.539 204.43 177.32 204.622C176.885 204.692 176.444 204.725 176.003 204.722Z" fill="#2E353A"/>
<path d="M159.264 209.517C154.786 209.517 150.781 205.948 150.027 201.034C149.98 200.8 149.981 200.558 150.03 200.324C150.079 200.091 150.175 199.869 150.312 199.673C150.448 199.477 150.623 199.311 150.826 199.185C151.029 199.058 151.255 198.974 151.491 198.937C151.727 198.9 151.968 198.912 152.2 198.971C152.431 199.029 152.649 199.134 152.839 199.279C153.028 199.424 153.187 199.606 153.305 199.814C153.423 200.022 153.497 200.252 153.524 200.489C154.06 203.949 156.966 206.384 160.009 205.939C160.738 205.819 161.434 205.548 162.05 205.141C162.667 204.734 163.191 204.201 163.587 203.577C163.707 203.366 163.868 203.182 164.062 203.036C164.256 202.89 164.477 202.785 164.713 202.728C164.949 202.671 165.194 202.664 165.433 202.705C165.672 202.747 165.9 202.837 166.102 202.971C166.305 203.104 166.478 203.278 166.611 203.481C166.743 203.684 166.833 203.912 166.874 204.151C166.915 204.39 166.906 204.635 166.849 204.871C166.791 205.106 166.686 205.328 166.539 205.521C165.875 206.56 164.998 207.447 163.966 208.124C162.935 208.8 161.772 209.25 160.554 209.444C160.126 209.5 159.695 209.524 159.264 209.517Z" fill="#2E353A"/>
<path d="M142.125 216.329C137.657 216.329 133.651 212.769 132.888 207.846C132.916 207.434 133.083 207.043 133.363 206.739C133.643 206.434 134.018 206.234 134.426 206.172C134.835 206.109 135.253 206.188 135.61 206.395C135.968 206.602 136.245 206.925 136.394 207.31C136.921 210.771 139.836 213.196 142.879 212.76C143.609 212.639 144.305 212.365 144.922 211.957C145.538 211.548 146.062 211.014 146.458 210.389C146.725 210.018 147.126 209.765 147.576 209.683C148.025 209.601 148.49 209.696 148.871 209.948C149.252 210.201 149.521 210.591 149.622 211.037C149.722 211.483 149.646 211.95 149.409 212.342C148.745 213.38 147.868 214.266 146.837 214.941C145.805 215.616 144.642 216.064 143.424 216.256C142.993 216.312 142.559 216.336 142.125 216.329Z" fill="#2E353A"/>
<path d="M125.531 222.405C123.495 222.393 121.525 221.677 119.955 220.38C117.985 218.752 116.691 216.451 116.322 213.922C116.276 213.47 116.405 213.018 116.683 212.659C116.961 212.3 117.367 212.061 117.816 211.993C118.264 211.924 118.723 212.03 119.095 212.289C119.468 212.549 119.727 212.941 119.819 213.386C120.056 215.045 120.9 216.557 122.189 217.628C122.75 218.111 123.408 218.467 124.12 218.671C124.831 218.875 125.579 218.922 126.31 218.809C127.042 218.696 127.74 218.425 128.357 218.016C128.973 217.606 129.494 217.068 129.882 216.438C130.179 216.15 130.565 215.973 130.977 215.934C131.388 215.896 131.801 215.999 132.146 216.226C132.491 216.454 132.748 216.792 132.875 217.186C133.002 217.579 132.99 218.004 132.843 218.391C132.177 219.43 131.299 220.316 130.266 220.991C129.232 221.666 128.068 222.114 126.848 222.305C126.413 222.375 125.972 222.409 125.531 222.405Z" fill="#2E353A"/>
<path d="M230.762 341.84L326.737 306.482" stroke="#2E353A" stroke-width="0.364311" stroke-linecap="round" stroke-linejoin="round"/>
<path d="M228.237 344.792L289.689 322.059" stroke="#2E353A" stroke-width="0.364311" stroke-linecap="round" stroke-linejoin="round"/>
<path d="M112.026 218.327V229.29L227.583 347.499L229.272 338.216L112.026 218.327Z" fill="#1B0354" stroke="#2E353A" stroke-width="0.728623" stroke-linecap="round" stroke-linejoin="round"/>
<path d="M113.742 226.928L182.361 295.538" stroke="#2E353A" stroke-width="0.364311" stroke-linecap="round" stroke-linejoin="round"/>
<path d="M146.158 256.392L217.71 329.634" stroke="#2E353A" stroke-width="0.364311" stroke-linecap="round" stroke-linejoin="round"/>
<path d="M112.026 218.327L229.272 338.217L344.393 294.711L225.076 180.362L112.026 218.327Z" fill="white" stroke="#2E353A" stroke-width="0.728623" stroke-linecap="round" stroke-linejoin="round"/>
<path d="M110.591 216.438L2 115.086L113.234 80.3999L224.222 178.555L110.591 216.438Z" fill="#ABA7FD" stroke="#2E353A" stroke-width="0.728623" stroke-linecap="round" stroke-linejoin="round"/>
<path d="M18.621 115.758L50.4098 105.858" stroke="#2E353A" stroke-width="0.776468" stroke-linecap="round" stroke-linejoin="round"/>
<path d="M23.3167 119.409L55.1055 109.51" stroke="#2E353A" stroke-width="0.776468" stroke-linecap="round" stroke-linejoin="round"/>
<path d="M131.353 219.181C131.008 219.183 130.669 219.082 130.381 218.89C129.998 218.625 129.732 218.222 129.637 217.766C129.542 217.309 129.627 216.834 129.873 216.438C130.78 215.029 131.13 213.332 130.854 211.679C130.7 210.426 130.176 209.247 129.349 208.293C128.523 207.338 127.431 206.652 126.213 206.32C125.773 206.2 125.396 205.914 125.162 205.523C124.927 205.132 124.852 204.666 124.953 204.221C125.054 203.776 125.322 203.387 125.702 203.136C126.082 202.884 126.545 202.788 126.994 202.869C128.905 203.359 130.627 204.408 131.94 205.882C133.252 207.356 134.094 209.187 134.36 211.143C134.775 213.67 134.23 216.262 132.834 218.409C132.667 218.647 132.445 218.841 132.188 218.975C131.93 219.109 131.644 219.18 131.353 219.181Z" fill="#2E353A"/>
<path d="M147.929 213.105C147.583 213.107 147.245 213.005 146.957 212.814C146.763 212.686 146.595 212.522 146.465 212.329C146.334 212.136 146.243 211.92 146.196 211.692C146.15 211.464 146.149 211.229 146.194 211.001C146.239 210.772 146.328 210.555 146.458 210.362C147.361 208.951 147.71 207.256 147.439 205.602C147.284 204.349 146.761 203.171 145.934 202.216C145.108 201.262 144.016 200.575 142.797 200.244C142.56 200.204 142.333 200.117 142.13 199.987C141.927 199.857 141.753 199.686 141.618 199.487C141.484 199.287 141.391 199.062 141.346 198.825C141.302 198.588 141.306 198.345 141.358 198.11C141.411 197.875 141.511 197.653 141.652 197.458C141.794 197.263 141.973 197.098 142.18 196.975C142.387 196.852 142.617 196.772 142.856 196.74C143.095 196.709 143.338 196.727 143.569 196.792C145.481 197.282 147.203 198.331 148.515 199.805C149.827 201.279 150.67 203.111 150.935 205.067C151.35 207.594 150.806 210.186 149.409 212.333C149.242 212.57 149.021 212.764 148.763 212.899C148.506 213.033 148.22 213.104 147.929 213.105Z" fill="#2E353A"/>
<path d="M213.877 190.453C213.566 190.437 213.265 190.342 213.001 190.176C212.738 190.01 212.521 189.78 212.372 189.506C212.224 189.232 212.148 188.925 212.152 188.614C212.157 188.303 212.241 187.998 212.397 187.728C213.305 186.323 213.655 184.628 213.378 182.978C213.225 181.723 212.702 180.543 211.876 179.586C211.049 178.63 209.956 177.942 208.737 177.61C208.51 177.561 208.295 177.467 208.105 177.334C207.915 177.201 207.753 177.032 207.629 176.836C207.504 176.64 207.42 176.421 207.381 176.192C207.342 175.963 207.349 175.729 207.401 175.503C207.514 175.05 207.796 174.658 208.19 174.407C208.584 174.157 209.06 174.068 209.518 174.159C211.429 174.649 213.151 175.698 214.463 177.172C215.776 178.646 216.618 180.478 216.884 182.433C217.3 184.962 216.752 187.555 215.349 189.699C215.184 189.936 214.964 190.129 214.707 190.26C214.451 190.392 214.166 190.458 213.877 190.453Z" fill="#2E353A"/>
<path d="M197.111 195.603C196.765 195.605 196.427 195.504 196.139 195.312C195.944 195.185 195.777 195.02 195.646 194.827C195.516 194.635 195.425 194.418 195.378 194.19C195.332 193.962 195.331 193.727 195.376 193.499C195.421 193.271 195.51 193.053 195.639 192.86C196.544 191.449 196.893 189.754 196.62 188.101C196.466 186.848 195.943 185.669 195.116 184.714C194.289 183.76 193.197 183.073 191.979 182.742C191.742 182.703 191.514 182.615 191.312 182.485C191.109 182.355 190.935 182.185 190.8 181.985C190.666 181.785 190.573 181.56 190.528 181.323C190.484 181.087 190.488 180.843 190.54 180.608C190.593 180.373 190.693 180.151 190.834 179.956C190.975 179.761 191.155 179.597 191.362 179.473C191.569 179.35 191.799 179.27 192.038 179.239C192.277 179.207 192.519 179.225 192.751 179.291C194.664 179.778 196.387 180.827 197.7 182.301C199.012 183.775 199.854 185.608 200.117 187.565C200.532 190.092 199.988 192.684 198.591 194.831C198.424 195.069 198.203 195.263 197.945 195.397C197.687 195.531 197.401 195.602 197.111 195.603Z" fill="#2E353A"/>
<path d="M181.798 201.506C181.451 201.505 181.113 201.401 180.826 201.207C180.443 200.941 180.176 200.539 180.081 200.082C179.987 199.626 180.071 199.15 180.317 198.754C181.229 197.347 181.583 195.649 181.307 193.995C181.153 192.742 180.629 191.563 179.803 190.609C178.976 189.654 177.884 188.968 176.666 188.636C176.428 188.597 176.201 188.509 175.998 188.379C175.796 188.249 175.622 188.079 175.487 187.879C175.352 187.679 175.26 187.454 175.215 187.218C175.17 186.981 175.174 186.738 175.227 186.502C175.28 186.267 175.38 186.045 175.521 185.85C175.662 185.655 175.842 185.491 176.049 185.368C176.256 185.244 176.486 185.164 176.725 185.133C176.963 185.102 177.206 185.119 177.438 185.185C179.35 185.675 181.072 186.724 182.384 188.198C183.696 189.672 184.539 191.504 184.804 193.459C185.219 195.987 184.675 198.578 183.278 200.725C183.112 200.965 182.891 201.16 182.633 201.296C182.376 201.432 182.089 201.504 181.798 201.506Z" fill="#2E353A"/>
<path d="M165.059 206.293C164.714 206.29 164.377 206.189 164.087 206.002C163.892 205.875 163.725 205.71 163.594 205.517C163.464 205.325 163.372 205.108 163.326 204.88C163.28 204.652 163.279 204.417 163.324 204.189C163.368 203.961 163.458 203.744 163.587 203.55C164.491 202.139 164.84 200.444 164.568 198.791C164.414 197.538 163.89 196.359 163.064 195.405C162.237 194.45 161.145 193.764 159.927 193.432C159.655 193.432 159.386 193.371 159.141 193.253C158.895 193.136 158.679 192.964 158.509 192.752C158.339 192.54 158.218 192.292 158.157 192.026C158.095 191.761 158.094 191.486 158.153 191.22C158.213 190.954 158.331 190.705 158.499 190.492C158.668 190.278 158.882 190.104 159.126 189.985C159.371 189.865 159.639 189.801 159.911 189.799C160.183 189.797 160.453 189.856 160.699 189.972C162.612 190.458 164.336 191.506 165.649 192.981C166.962 194.455 167.803 196.289 168.065 198.246C168.481 200.773 167.937 203.365 166.539 205.512C166.373 205.751 166.152 205.947 165.894 206.083C165.637 206.219 165.35 206.291 165.059 206.293Z" fill="#2E353A"/>
<path d="M322.232 291.941L326.7 290.297" stroke="#2E353A" stroke-width="0.364311" stroke-linecap="round" stroke-linejoin="round"/>
<path d="M234.013 324.529L318.172 293.449" stroke="#2E353A" stroke-width="0.364311" stroke-linecap="round" stroke-linejoin="round"/>
<path d="M236.375 310.478L316.691 280.815" stroke="#2E353A" stroke-width="0.364311" stroke-linecap="round" stroke-linejoin="round"/>
<path d="M224.004 315.047L231.034 312.449" stroke="#2E353A" stroke-width="0.364311" stroke-linecap="round" stroke-linejoin="round"/>
<path d="M213.995 305.565L306.691 271.333" stroke="#2E353A" stroke-width="0.364311" stroke-linecap="round" stroke-linejoin="round"/>
<path d="M203.995 296.092L296.683 261.86" stroke="#2E353A" stroke-width="0.364311" stroke-linecap="round" stroke-linejoin="round"/>
<path d="M282.786 253.813L286.674 252.378" stroke="#2E353A" stroke-width="0.364311" stroke-linecap="round" stroke-linejoin="round"/>
<path d="M193.986 286.61L277.228 255.865" stroke="#2E353A" stroke-width="0.364311" stroke-linecap="round" stroke-linejoin="round"/>
<path d="M183.978 277.128L276.674 242.896" stroke="#2E353A" stroke-width="0.364311" stroke-linecap="round" stroke-linejoin="round"/>
<path d="M173.969 267.654L266.665 233.422" stroke="#2E353A" stroke-width="0.364311" stroke-linecap="round" stroke-linejoin="round"/>
<path d="M163.969 258.172L256.656 223.94" stroke="#2E353A" stroke-width="0.364311" stroke-linecap="round" stroke-linejoin="round"/>
<path d="M153.96 248.69L246.647 214.458" stroke="#2E353A" stroke-width="0.364311" stroke-linecap="round" stroke-linejoin="round"/>
<path d="M233.359 206.193L236.647 204.976" stroke="#2E353A" stroke-width="0.364311" stroke-linecap="round" stroke-linejoin="round"/>
<path d="M143.951 239.208L230.507 207.247" stroke="#2E353A" stroke-width="0.364311" stroke-linecap="round" stroke-linejoin="round"/>
<path d="M161.616 219.508L226.638 195.503" stroke="#2E353A" stroke-width="0.364311" stroke-linecap="round" stroke-linejoin="round"/>
<path d="M133.951 229.735L151.853 223.123" stroke="#2E353A" stroke-width="0.364311" stroke-linecap="round" stroke-linejoin="round"/>
<g style="mix-blend-mode:multiply">
<path d="M166.103 254.249C175.485 255.475 174.659 239.417 172.279 234.031C170.543 236.02 169.249 238.356 168.484 240.883C167.718 243.41 167.498 246.071 167.838 248.69C167.937 249.913 168.363 251.086 169.073 252.087C169.433 252.582 169.93 252.96 170.504 253.173C171.078 253.387 171.702 253.426 172.297 253.286C173.151 252.924 173.874 252.309 174.368 251.524C176.094 249.235 177.238 246.401 179.055 244.303C181.571 246.002 190.508 248.908 189.218 242.659C188.51 239.208 190.226 239.598 192.07 241.288C192.833 241.978 194.032 241.606 194.976 241.188L204.059 237.192C205.215 236.602 206.467 236.224 207.755 236.074C212.115 235.856 214.967 239.907 219.245 237.046C221.061 235.847 221.479 232.596 223.786 231.361C225.43 230.452 227.365 230.398 229.236 230.144C235.666 229.29 238.954 225.893 244.894 222.823" stroke="#1B0354" stroke-width="0.728623" stroke-linecap="round" stroke-linejoin="round"/>
</g>
<g style="mix-blend-mode:multiply">
<path d="M173.387 264.285C176.902 264.884 179.909 261.678 183.015 260.652C186.984 259.326 188.71 257.709 192.524 256.065C197.565 253.903 203.487 252.904 202.433 245.284C201.716 248.009 201.634 251.006 201.08 253.858C205.167 255.883 206.266 252.405 206.684 249.317C208.056 249.282 209.411 249.009 210.689 248.508C210.689 249.081 210.871 249.725 210.862 250.27C212.824 251.061 213.587 250.525 213.995 248.79C216.166 248.381 216.938 246.347 218.773 245.847C219.236 250.943 220.535 255.402 220.235 260.615C216.756 261.524 216.211 255.52 217.092 253.032C218.001 250.398 220.616 248.99 221.579 246.238C221.779 246.574 221.625 246.964 221.734 247.328C226.111 244.712 231.724 245.42 236.066 242.36C237.428 241.397 238.4 239.471 239.844 238.799C242.987 237.346 243.922 239.054 246.266 235.629" stroke="#1B0354" stroke-width="0.728623" stroke-linecap="round" stroke-linejoin="round"/>
</g>
<g style="mix-blend-mode:multiply">
<path d="M205.031 294.212C211.343 292.395 214.113 276.71 212.297 270.951C210.171 263.985 207.247 271.623 206.566 275.365C206.021 278.363 205.149 286.264 207.946 288.544C214.15 293.576 217.937 283.231 218.7 278.553C218.972 281.478 217.21 285.084 217.928 288.235C222.951 288.826 225.439 284.648 225.121 280.334C225.745 280.931 226.168 281.707 226.33 282.555C226.493 283.403 226.388 284.28 226.03 285.066C230.825 284.73 230.035 276.637 230.571 273.376C230.298 275.656 230.507 278.326 232.042 280.17C233.323 281.696 235.766 282.368 237.374 281.187C238.981 280.007 238.663 276.9 236.711 276.492V296.155C236.772 296.724 236.658 297.298 236.384 297.799C235.739 298.708 234.158 298.517 233.423 297.645C232.775 296.694 232.47 295.55 232.56 294.402C232.469 287.963 234.458 279.144 239.444 274.748C239.7 275.374 239.785 276.058 239.69 276.728C240.167 276.542 240.598 276.255 240.954 275.886C241.31 275.518 241.582 275.077 241.751 274.593C242.078 276.038 242.932 277.854 244.394 277.6C244.88 277.473 245.324 277.222 245.684 276.873C248.082 274.893 250.68 273.585 252.287 270.77C252.514 271.478 252.75 272.187 252.987 272.904C253.368 271.533 254.676 270.633 255.956 270.016C257.91 269.097 260.023 268.564 262.178 268.445C263.995 268.354 265.975 268.544 267.628 267.763C268.36 267.372 269.061 266.926 269.726 266.428C271.608 265.188 273.787 264.473 276.038 264.357" stroke="#1B0354" stroke-width="0.728623" stroke-linecap="round" stroke-linejoin="round"/>
</g>
<path d="M130.2 121.725C130.2 121.725 144.686 103.47 149.591 96.9392C154.496 90.4089 158.047 85.3862 158.047 85.3862C158.047 85.3862 160.663 87.448 159.863 89.7912C159.064 92.1345 141.835 115.667 138.002 121.644C134.169 127.62 134.705 135.186 134.986 137.792C135.268 140.399 127.666 131.88 130.2 121.725Z" fill="white" stroke="#2E353A" stroke-width="0.816333" stroke-linecap="round" stroke-linejoin="round"/>
<path d="M158.047 85.3862C158.047 85.3862 167.066 72.8433 173.76 62.3983C180.454 51.9534 190.226 36.2679 192.551 34.1789C194.877 32.09 195.44 37.5395 194.686 41.1907C193.932 44.8418 185.93 55.0324 180.526 63.3883C175.122 71.7443 171.78 77.7569 167.129 83.2428C162.479 88.7286 162.752 88.992 159.863 89.7912C156.975 90.5905 157.538 87.7295 158.047 85.3862Z" fill="#2E353A" stroke="#2E353A" stroke-width="0.816333" stroke-linecap="round" stroke-linejoin="round"/>
<path d="M127.085 123.56C128.084 116.794 130.345 104.296 135.513 100.363C140.681 96.4305 156.321 99.455 157.62 99.6911C158.919 99.9273 179.5 104.487 185.776 108.347C192.052 112.207 196.266 123.36 197.874 129.818C199.481 136.276 202.933 147.211 203.45 147.983C203.45 147.983 208.673 150.281 211.534 150.008C214.395 149.736 218.2 136.439 226.211 128.583C234.222 120.726 238.382 119.655 247.228 120.408C256.075 121.162 289.68 130.272 293.086 133.623C296.492 136.975 298.617 144.522 297.881 149.972C297.146 155.422 298.217 161.416 298.217 162.451C298.217 163.487 301.369 166.856 300.606 169.717C299.843 172.578 299.371 178.8 297.037 179.626C294.703 180.453 277.527 180.017 264.776 178.282C252.024 176.547 234.286 168.855 222.542 163.478C210.798 158.101 205.067 155.785 196.484 155.848C187.901 155.912 171.262 156.275 155.894 152.733C140.527 149.191 130.082 142.742 127.194 139.918C124.305 137.093 126.095 130.336 127.085 123.56ZM219.109 155.458C223.314 161.679 240.262 167.81 249.381 170.344C258.5 172.878 280.37 177.419 286.074 174.268C291.778 171.116 294.775 152.361 294.248 145.858C293.722 139.355 291.06 135.74 291.06 135.74C279.825 128.792 244.667 121.48 237.401 124.396C230.135 127.311 223.187 136.712 220.635 144.268C218.082 151.825 219.109 155.458 219.109 155.458ZM145.695 144.768C156.921 151.452 174.623 153.414 181.643 153.632C188.664 153.85 195.403 150.163 195.612 142.097C195.821 134.032 191.57 120.536 189.981 116.666C188.392 112.797 183.178 110.472 183.178 110.472C176.139 107.139 146.957 99.791 142.016 100.608C137.075 101.426 132.752 108.928 131.744 119.891C130.736 130.853 134.469 138.083 145.695 144.768Z" fill="#2E353A" stroke="#2E353A" stroke-width="0.816333" stroke-linecap="round" stroke-linejoin="round"/>
<path d="M297.436 162.225C297.436 162.225 300.325 166.63 302.386 163.496C304.448 160.363 331.042 130.536 331.042 130.536C331.042 130.536 332.077 130.263 331.832 132.352C331.587 134.441 303.749 171.816 302.713 173.641C301.678 175.467 297.264 176.021 296.228 175.249C295.193 174.477 297.436 162.225 297.436 162.225Z" fill="white" stroke="#2E353A" stroke-width="0.816333" stroke-linecap="round" stroke-linejoin="round"/>
<path d="M329.225 131.58C330.745 128.875 332.115 126.088 333.331 123.233C336.146 116.975 337.872 104.741 338.326 91.9892C338.78 79.2374 339.234 71.6989 341.587 74.024C343.939 76.3491 341.923 88.8558 341.487 98.7285C341.051 108.601 337.981 118.519 337.236 123.733C336.673 127.665 333.658 133.896 331.578 133.905C329.498 133.914 329.761 133.396 329.225 131.58Z" fill="#2E353A" stroke="#2E353A" stroke-width="0.816333" stroke-linecap="round" stroke-linejoin="round"/>
<path d="M157.62 294.611L169.055 307.554L152.052 303.721L31.0732 229.708L36.6499 220.598L157.62 294.611Z" fill="white" stroke="#2E353A" stroke-width="0.921354" stroke-linecap="round" stroke-linejoin="round"/>
<g style="mix-blend-mode:multiply" opacity="0.5">
<path d="M157.62 294.611L169.055 307.554L152.052 303.721L31.0732 229.708L36.6499 220.598L157.62 294.611Z" fill="#1B0354"/>
<path d="M157.62 294.611L169.055 307.554L152.052 303.721L31.0732 229.708L36.6499 220.598L157.62 294.611Z" stroke="#2E353A" stroke-width="0.921354" stroke-linecap="round" stroke-linejoin="round"/>
</g>
<path d="M35.3834 222.672L32.345 227.638L153.321 301.656L156.36 296.69L35.3834 222.672Z" stroke="#2E353A" stroke-width="0.460676" stroke-linecap="round" stroke-linejoin="round"/>
<path d="M157.647 294.639L152.08 303.73L169.055 307.554L157.647 294.639Z" fill="white" stroke="#2E353A" stroke-width="0.921354" stroke-linecap="round" stroke-linejoin="round"/>
<path d="M160.563 305.638L169.055 307.554L163.351 301.096L160.563 305.638Z" fill="#1B0354" stroke="#2E353A" stroke-width="0.921354" stroke-linecap="round" stroke-linejoin="round"/>
<path d="M20.3195 216.865C19.9526 217.462 19.7072 218.126 19.5972 218.819C19.4872 219.511 19.5148 220.218 19.6785 220.9C19.8421 221.581 20.1386 222.224 20.551 222.791C20.9633 223.358 21.4834 223.838 22.0815 224.204L31.0732 229.708L36.6499 220.625L27.6582 215.121C26.4533 214.381 25.004 214.149 23.6283 214.476C22.2526 214.803 21.0626 215.662 20.3195 216.865Z" fill="white" stroke="#2E353A" stroke-width="0.921354" stroke-linecap="round" stroke-linejoin="round"/>
<path d="M20.3195 216.865C19.9526 217.462 19.7072 218.126 19.5972 218.819C19.4872 219.511 19.5148 220.218 19.6785 220.9C19.8421 221.581 20.1386 222.224 20.551 222.791C20.9633 223.358 21.4834 223.838 22.0815 224.204L26.3866 226.838L31.9633 217.755L27.6582 215.121C26.4533 214.381 25.004 214.149 23.6283 214.476C22.2526 214.803 21.0626 215.662 20.3195 216.865Z" fill="#2E353A" stroke="#2E353A" stroke-width="0.921354" stroke-linecap="round" stroke-linejoin="round"/>
<path d="M264.449 173.496L261.261 171.252C260.768 170.906 260.203 170.676 259.608 170.579C259.014 170.481 258.405 170.519 257.827 170.689C254.458 171.67 248.1 174.168 246.284 176.139C243.922 178.573 243.177 182.978 244.313 185.049C245.448 187.12 250.107 189.763 250.107 189.763L269.626 177.883L264.449 173.496Z" fill="white" stroke="#2E353A" stroke-width="0.60763" stroke-miterlimit="10"/>
<g style="mix-blend-mode:multiply" opacity="0.5">
<path d="M264.449 173.496L261.261 171.252C260.768 170.906 260.203 170.676 259.608 170.579C259.014 170.481 258.405 170.519 257.827 170.689C254.458 171.67 248.1 174.168 246.284 176.139C243.922 178.573 243.177 182.978 244.313 185.049C245.448 187.12 250.107 189.763 250.107 189.763L269.626 177.883L264.449 173.496Z" fill="#1B0354"/>
<path d="M264.449 173.496L261.261 171.252C260.768 170.906 260.203 170.676 259.608 170.579C259.014 170.481 258.405 170.519 257.827 170.689C254.458 171.67 248.1 174.168 246.284 176.139C243.922 178.573 243.177 182.978 244.313 185.049C245.448 187.12 250.107 189.763 250.107 189.763L269.626 177.883L264.449 173.496Z" stroke="#2E353A" stroke-width="0.60763" stroke-miterlimit="10"/>
</g>
<path d="M266.438 172.579L250.998 179.636C250.998 179.636 245.775 182.588 247.428 191.625L337.845 258.2C337.845 258.2 340.987 260.488 346.664 258.554C352.34 256.619 358.153 249.925 359.379 244.267C360.605 238.609 356.655 236.828 355.919 236.202C355.183 235.575 269.49 173.251 269.49 173.251C268.584 172.673 267.503 172.435 266.438 172.579Z" fill="white" stroke="#2E353A" stroke-width="0.60763" stroke-miterlimit="10"/>
<g style="mix-blend-mode:multiply" opacity="0.5">
<path d="M266.438 172.579L250.998 179.636C250.998 179.636 245.775 182.588 247.428 191.625L337.845 258.2C337.845 258.2 340.987 260.488 346.664 258.554C352.34 256.619 358.153 249.925 359.379 244.267C360.605 238.609 356.655 236.828 355.919 236.202C355.183 235.575 269.49 173.251 269.49 173.251C268.584 172.673 267.503 172.435 266.438 172.579Z" fill="#1B0354"/>
<path d="M266.438 172.579L250.998 179.636C250.998 179.636 245.775 182.588 247.428 191.625L337.845 258.2C337.845 258.2 340.987 260.488 346.664 258.554C352.34 256.619 358.153 249.925 359.379 244.267C360.605 238.609 356.655 236.828 355.919 236.202C355.183 235.575 269.49 173.251 269.49 173.251C268.584 172.673 267.503 172.435 266.438 172.579Z" stroke="#2E353A" stroke-width="0.60763" stroke-miterlimit="10"/>
</g>
<path d="M353.294 253.858C347.599 259.171 340.706 261.042 337.854 258.027C335.002 255.012 337.354 248.245 343.049 242.923C348.744 237.6 355.637 235.739 358.489 238.754C361.341 241.769 358.98 248.536 353.294 253.858Z" fill="white" stroke="#2E353A" stroke-width="0.60763" stroke-miterlimit="10"/>
<g style="mix-blend-mode:multiply">
<path d="M353.294 253.858C347.599 259.171 340.706 261.042 337.854 258.027C335.002 255.012 337.354 248.245 343.049 242.923C348.744 237.6 355.637 235.739 358.489 238.754C361.341 241.769 358.98 248.536 353.294 253.858Z" fill="#1B0354"/>
<path d="M353.294 253.858C347.599 259.171 340.706 261.042 337.854 258.027C335.002 255.012 337.354 248.245 343.049 242.923C348.744 237.6 355.637 235.739 358.489 238.754C361.341 241.769 358.98 248.536 353.294 253.858Z" stroke="#2E353A" stroke-width="0.60763" stroke-miterlimit="10"/>
</g>
<path d="M269.48 173.251C268.577 172.675 267.5 172.437 266.438 172.579L250.998 179.636C250.998 179.636 245.775 182.587 247.428 191.625L309.952 237.664C309.507 235.539 309.589 232.432 311.978 228.745C314.194 225.303 324.148 219.753 329.525 216.938C304.076 198.418 269.48 173.251 269.48 173.251Z" fill="#2E353A" stroke="#2E353A" stroke-width="0.816333" stroke-linecap="round" stroke-linejoin="round"/>
<path d="M341.223 242.759L308.199 218.827C307.705 218.469 307.309 217.993 307.047 217.442C306.786 216.891 306.667 216.283 306.702 215.674C306.738 215.065 306.926 214.474 307.249 213.957C307.573 213.44 308.021 213.013 308.553 212.714L313.667 209.926C314.267 209.601 314.947 209.452 315.628 209.495C316.309 209.539 316.964 209.773 317.518 210.171L352.431 235.457" fill="white"/>
<path d="M341.223 242.759L308.199 218.827C307.705 218.469 307.309 217.993 307.047 217.442C306.786 216.891 306.667 216.283 306.702 215.674C306.738 215.065 306.926 214.474 307.249 213.957C307.573 213.44 308.021 213.013 308.553 212.714L313.667 209.926C314.267 209.601 314.947 209.452 315.628 209.495C316.309 209.539 316.964 209.773 317.518 210.171L352.431 235.457" stroke="#2E353A" stroke-width="0.60763" stroke-miterlimit="10"/>
<g style="mix-blend-mode:multiply" opacity="0.5">
<path d="M341.223 242.759L308.199 218.827C307.705 218.469 307.309 217.993 307.047 217.442C306.786 216.891 306.667 216.283 306.702 215.674C306.738 215.065 306.926 214.474 307.249 213.957C307.573 213.44 308.021 213.013 308.553 212.714L313.667 209.926C314.267 209.601 314.947 209.452 315.628 209.495C316.309 209.539 316.964 209.773 317.518 210.171L352.431 235.457" fill="#1B0354"/>
<path d="M341.223 242.759L308.199 218.827C307.705 218.469 307.309 217.993 307.047 217.442C306.786 216.891 306.667 216.283 306.702 215.674C306.738 215.065 306.926 214.474 307.249 213.957C307.573 213.44 308.021 213.013 308.553 212.714L313.667 209.926C314.267 209.601 314.947 209.452 315.628 209.495C316.309 209.539 316.964 209.773 317.518 210.171L352.431 235.457" stroke="#2E353A" stroke-width="0.60763" stroke-miterlimit="10"/>
</g>
</svg>
