<svg width="63" height="28" viewBox="0 0 63 28" fill="none" xmlns="http://www.w3.org/2000/svg">
<path d="M0.564453 21.5H13.2485V17.944H5.10045V1.47998H0.564453V21.5Z" fill="white"/>
<path d="M21.587 18.728C19.291 18.728 18.003 17.048 18.003 14.248V14.024C18.003 11.224 19.347 9.60002 21.587 9.60002C23.855 9.60002 25.171 11.28 25.171 14.08V14.276C25.171 17.048 23.855 18.728 21.587 18.728ZM21.559 21.808C25.955 21.808 29.287 18.868 29.287 14.248V14.024C29.287 9.46002 25.983 6.52002 21.587 6.52002C17.191 6.52002 13.859 9.51602 13.859 14.108V14.332C13.859 18.896 17.191 21.808 21.559 21.808Z" fill="white"/>
<path d="M37.665 26.904C42.481 26.904 45.3649 24.692 45.3929 20.352V6.85602H41.361V9.04002C40.521 7.55602 39.0929 6.52002 36.7129 6.52002C33.0729 6.52002 30.2729 9.46002 30.2729 13.66V13.856C30.2729 18.196 33.1009 20.856 36.6569 20.856C38.8129 20.856 40.549 19.568 41.361 18.14V20.352C41.361 22.648 40.129 23.936 37.665 23.936C35.593 23.936 34.669 23.096 34.417 21.808H30.3849C30.7769 24.832 32.933 26.904 37.665 26.904ZM37.861 17.804C35.845 17.804 34.417 16.292 34.417 13.856V13.632C34.417 11.224 35.677 9.60002 37.945 9.60002C40.1569 9.60002 41.4729 11.112 41.4729 13.604V13.8C41.4729 16.292 39.989 17.804 37.861 17.804Z" fill="white"/>
<path d="M54.9616 18.728C52.6656 18.728 51.3776 17.048 51.3776 14.248V14.024C51.3776 11.224 52.7216 9.60002 54.9616 9.60002C57.2296 9.60002 58.5456 11.28 58.5456 14.08V14.276C58.5456 17.048 57.2296 18.728 54.9616 18.728ZM54.9336 21.808C59.3296 21.808 62.6616 18.868 62.6616 14.248V14.024C62.6616 9.46002 59.3576 6.52002 54.9616 6.52002C50.5656 6.52002 47.2336 9.51602 47.2336 14.108V14.332C47.2336 18.896 50.5656 21.808 54.9336 21.808Z" fill="white"/>
</svg>
