<svg width="166" height="36" viewBox="0 0 166 36" fill="none" xmlns="http://www.w3.org/2000/svg">
<path d="M39.1009 11.6797V9.31818H53.1722V11.6797H47.4993V27.5H44.7649V11.6797H39.1009ZM56.1817 27.5V9.31818H62.6625C64.0711 9.31818 65.2401 9.56084 66.1693 10.0462C67.1044 10.5315 67.8028 11.2032 68.2644 12.0614C68.7261 12.9137 68.9569 13.8991 68.9569 15.0178C68.9569 16.1304 68.7231 17.11 68.2556 17.9563C67.7939 18.7968 67.0955 19.4508 66.1604 19.9183C65.2312 20.3859 64.0623 20.6197 62.6536 20.6197H57.7442V18.2582H62.4051C63.2928 18.2582 64.0149 18.1309 64.5713 17.8764C65.1335 17.6219 65.5449 17.252 65.8053 16.7667C66.0657 16.2814 66.1959 15.6984 66.1959 15.0178C66.1959 14.3312 66.0627 13.7364 65.7964 13.2333C65.536 12.7302 65.1246 12.3455 64.5624 12.0792C64.006 11.8069 63.2751 11.6708 62.3695 11.6708H58.9249V27.5H56.1817ZM65.1572 19.2969L69.6494 27.5H66.5244L62.121 19.2969H65.1572ZM73.7308 27.5H70.8189L77.3619 9.31818H80.5313L87.0742 27.5H84.1623L79.022 12.6207H78.88L73.7308 27.5ZM74.2191 20.38H83.6651V22.6882H74.2191V20.38ZM89.2847 9.31818L94.3451 24.1264H94.5493L99.6096 9.31818H102.575L96.0319 27.5H92.8625L86.3195 9.31818H89.2847ZM105.1 27.5V9.31818H116.5V11.6797H107.844V17.2195H115.905V19.5721H107.844V25.1385H116.606V27.5H105.1ZM120.064 27.5V9.31818H126.545C127.953 9.31818 129.122 9.56084 130.051 10.0462C130.987 10.5315 131.685 11.2032 132.147 12.0614C132.608 12.9137 132.839 13.8991 132.839 15.0178C132.839 16.1304 132.605 17.11 132.138 17.9563C131.676 18.7968 130.978 19.4508 130.043 19.9183C129.113 20.3859 127.944 20.6197 126.536 20.6197H121.626V18.2582H126.287C127.175 18.2582 127.897 18.1309 128.453 17.8764C129.016 17.6219 129.427 17.252 129.688 16.7667C129.948 16.2814 130.078 15.6984 130.078 15.0178C130.078 14.3312 129.945 13.7364 129.679 13.2333C129.418 12.7302 129.007 12.3455 128.445 12.0792C127.888 11.8069 127.157 11.6708 126.252 11.6708H122.807V27.5H120.064ZM129.039 19.2969L133.532 27.5H130.407L126.003 19.2969H129.039ZM145.994 14.0945C145.899 13.254 145.508 12.603 144.822 12.1413C144.135 11.6738 143.271 11.44 142.23 11.44C141.484 11.44 140.839 11.5584 140.294 11.7951C139.75 12.0259 139.326 12.3455 139.025 12.7539C138.729 13.1564 138.581 13.6151 138.581 14.13C138.581 14.562 138.681 14.9349 138.883 15.2486C139.09 15.5623 139.359 15.8256 139.69 16.0387C140.028 16.2459 140.389 16.4205 140.774 16.5625C141.158 16.6986 141.528 16.8111 141.883 16.8999L143.659 17.3615C144.239 17.5036 144.834 17.6959 145.443 17.9386C146.053 18.1812 146.618 18.5008 147.139 18.8974C147.66 19.2939 148.08 19.7852 148.4 20.3711C148.725 20.957 148.888 21.6584 148.888 22.4751C148.888 23.505 148.622 24.4194 148.089 25.2184C147.562 26.0174 146.796 26.6477 145.79 27.1094C144.789 27.571 143.579 27.8018 142.159 27.8018C140.797 27.8018 139.619 27.5858 138.625 27.1538C137.631 26.7217 136.853 26.1091 136.29 25.3161C135.728 24.517 135.417 23.5701 135.358 22.4751H138.11C138.163 23.1321 138.377 23.6796 138.749 24.1175C139.128 24.5496 139.611 24.8722 140.197 25.0852C140.788 25.2924 141.436 25.396 142.141 25.396C142.916 25.396 143.606 25.2746 144.209 25.032C144.819 24.7834 145.298 24.4401 145.648 24.0021C145.997 23.5582 146.171 23.0404 146.171 22.4485C146.171 21.9099 146.017 21.469 145.71 21.1257C145.408 20.7824 144.996 20.4983 144.476 20.2734C143.961 20.0485 143.378 19.8503 142.727 19.6786L140.578 19.0927C139.122 18.6961 137.968 18.1132 137.116 17.3438C136.27 16.5743 135.846 15.5563 135.846 14.2898C135.846 13.2422 136.13 12.3278 136.699 11.5465C137.267 10.7653 138.036 10.1586 139.007 9.72656C139.978 9.28859 141.072 9.0696 142.292 9.0696C143.523 9.0696 144.609 9.28563 145.55 9.71768C146.497 10.1497 147.243 10.7446 147.787 11.5021C148.332 12.2538 148.616 13.1179 148.639 14.0945H145.994ZM152.066 27.5V9.31818H163.465V11.6797H154.809V17.2195H162.87V19.5721H154.809V25.1385H163.572V27.5H152.066Z" fill="white"/>
<g clip-path="url(#clip0_1199_7463)">
<path d="M22.224 18.9073C22.1733 18.92 22.1202 18.9352 22.067 18.9478C22.1202 18.958 22.1759 18.9656 22.229 18.9732L22.224 18.9073Z" fill="black"/>
<path d="M17.5013 35.5025C27.1669 35.5025 35.0025 27.6669 35.0025 18.0013C35.0025 8.33558 27.1669 0.5 17.5013 0.5C7.83558 0.5 0 8.33558 0 18.0013C0 27.6669 7.83558 35.5025 17.5013 35.5025Z" fill="white"/>
<g clip-path="url(#clip1_1199_7463)">
<path d="M22.3189 10.0505C22.3189 12.7027 20.19 14.8484 17.5703 14.8484C14.9507 14.8484 12.8162 12.7027 12.8162 10.0505C12.8162 7.3983 14.9451 5.25256 17.5703 5.25256C20.1956 5.25256 22.3189 7.3983 22.3189 10.0505Z" fill="#1B0354"/>
<path d="M22.3189 10.0505C22.3189 12.7027 20.19 14.8484 17.5703 14.8484C14.9507 14.8484 12.8162 12.7027 12.8162 10.0505C12.8162 7.3983 14.9451 5.25256 17.5703 5.25256C20.1956 5.25256 22.3189 7.3983 22.3189 10.0505Z" fill="white"/>
<path d="M18.9446 33.9258C19.1707 33.2942 19.3973 32.6406 19.6291 31.9596C22.4805 23.7198 26 12.5115 26 10.0882C26 5.34497 22.1946 1.5 17.5002 1.5C12.8057 1.5 9 5.34497 9 10.0886C9 14.2601 19.472 22.459 18.7823 34.5M17.57 14.8484C14.9451 14.8484 12.8159 12.7027 12.8159 10.0505C12.8159 7.3983 14.9447 5.25256 17.57 5.25256C20.1952 5.25256 22.3185 7.3983 22.3185 10.0505C22.3185 12.7027 20.1896 14.8484 17.57 14.8484Z" fill="#1B0354"/>
</g>
</g>
<defs>
<clipPath id="clip0_1199_7463">
<rect width="35" height="35" fill="white" transform="translate(0 0.5)"/>
</clipPath>
<clipPath id="clip1_1199_7463">
<rect width="17" height="33" fill="white" transform="translate(9 1.5)"/>
</clipPath>
</defs>
</svg>
